<?xml version="1.0" encoding="windows-1252" standalone="yes"?>
<svg xmlns="http://www.w3.org/2000/svg" xmlns:xlink="http://www.w3.org/1999/xlink" version="1.1" width="1920.0px" viewBox="0 0 1920.0 1080.0" height="1080.0px">
  <g>
    <g>
      <defs/>
      <rect fill="#C12018" height="1080px" width="1920px" x="0" y="0"/>
    </g>
    <g transform="translate(876.0, 472.5) scale(1 1)"><g>
    <g transform="translate(0, 0) scale(1.5 1.5)"><title>generali/logo/generali_secundario</title>
    <g id="generali/logo/generali_secundario" stroke="none" stroke-width="1" fill="none" fill-rule="evenodd">
        <path d="M29.3811659,71.4037732 L29.3811659,77.8937315 L28.8789238,77.8937315 C28,72.0278076 26.2421525,72.2774214 21.470852,72.2774214 L21.470852,72.2774214 L21.470852,80.0154487 L22.3497758,80.0154487 C25.2376682,80.0154487 25.3632287,76.3960488 25.3632287,76.3960488 L25.3632287,76.3960488 L25.9910314,76.3960488 L25.9910314,84.8829175 L25.3632287,84.8829175 C24.9865471,82.0123589 23.9820628,81.0139038 22.3497758,81.0139038 L22.3497758,81.0139038 L21.3452915,81.0139038 L21.3452915,89.1263518 L23.103139,89.1263518 C26.8699552,89.1263518 28.2511211,88.3775104 28.8789238,83.135621 L28.8789238,83.135621 L29.5067265,83.135621 L29.5067265,90 L15.9461883,90 L15.9461883,89.1263518 L18.4573991,89.1263518 L18.4573991,72.2774214 L16.1973094,72.2774214 L16.1973094,71.4037732 L29.3811659,71.4037732 Z M13.8116592,70.9045456 L13.8116592,77.6441177 L13.309417,77.6441177 C12.6816143,74.7735592 11.0493274,71.653387 7.78475336,71.653387 C3.58744395,71.653387 3.39590006,77.787391 3.3899515,79.9627332 L3.38987142,80.195592 C3.38997438,80.2669728 3.39013453,80.3319233 3.39013453,80.3898694 C3.39013453,80.6197768 3.38445358,80.9249755 3.38332404,81.2835057 L3.38370914,81.6033657 C3.39952548,84.2585373 3.76681614,89.1263518 7.78475336,89.1263518 C8.41255605,89.1263518 10.7982063,88.5023173 11.1748879,87.0046346 L11.1748879,87.0046346 L11.1748879,81.0139038 L8.66367713,81.0139038 L8.66367713,80.1402556 L15.9461883,80.1402556 L15.9461883,80.8890969 L13.9372197,80.8890969 L13.9372197,89.7503862 C13.9372197,89.7503862 11.5515695,87.8782828 11.5515695,87.8782828 C10.7982063,88.876738 9.5426009,89.8751931 7.65919283,89.8751931 C1.632287,89.8751931 8.8817842e-14,83.7596554 8.8817842e-14,80.2650625 C8.8817842e-14,76.3960488 2.13452915,70.9045456 7.65919283,70.9045456 C10.5470852,70.9045456 11.5515695,72.4022283 11.5515695,72.4022283 C11.5515695,72.5270352 13.8116592,70.9045456 13.8116592,70.9045456 L13.8116592,70.9045456 Z M84.7533632,70.9045456 L91.6591928,89.1263518 L93.5426009,89.1263518 L93.5426009,72.2774214 L91.1569507,72.2774214 L91.1569507,71.4037732 L98.941704,71.4037732 L98.941704,72.2774214 L96.5560538,72.2774214 L96.5560538,89.0015449 L96.8071749,89.0015449 C100.573991,89.0015449 101.955157,88.2527035 102.58296,83.0108141 L102.58296,83.0108141 L103.461883,83.0108141 L103.461883,89.8751931 L86.5112108,89.8751931 L86.5112108,89.0015449 L88.6457399,89.0015449 C88.5868834,89.0015449 88.1417811,87.9046093 87.6854708,86.7391153 L87.5032379,86.2716988 C87.0506061,85.1062048 86.6367713,84.0092692 86.6367713,84.0092692 L86.6367713,84.0092692 L80.3587444,84.0092692 C80.3587444,84.0092692 79.103139,87.0046346 79.2286996,87.8782828 C79.3542601,89.0015449 80.9865471,89.0015449 81.2376682,89.0015449 L81.2376682,89.0015449 L81.2376682,89.8751931 L76.7174888,89.8751931 C72.8620417,89.8751931 72.8776824,87.4965206 72.9264448,85.1836937 L72.9342205,84.7992514 C72.9680513,82.8842798 72.8768135,81.1093444 70.4394619,80.8890969 L70.4394619,80.8890969 L67.3004484,80.8890969 L67.3004484,89.0015449 L69.6860987,89.0015449 L69.6860987,89.8751931 L62.0269058,89.8751931 L62.0269058,89.0015449 L64.4125561,89.0015449 L64.4125561,72.1526145 L62.0269058,72.1526145 L62.0269058,71.2789663 L71.3183857,71.2789663 C74.5829596,71.4037732 76.5919283,72.776649 76.5919283,75.6472075 C76.5919283,79.641028 72.32287,80.5146763 72.32287,80.5146763 C72.32287,80.6394831 73.955157,80.6394831 74.9596413,81.6379383 C75.7130045,82.5115865 75.838565,84.3836899 75.838565,85.2573381 L75.838565,85.2573381 L75.838565,88.5023173 C75.838565,88.7519311 75.7130045,89.1263518 76.5919283,89.1263518 C77.5964126,88.876738 77.9730942,87.5038622 77.9730942,87.5038622 C77.9730942,87.4442529 79.2906267,83.6550612 80.6671533,79.7124709 L81.0548198,78.6025194 C82.4313464,74.6625982 83.7488789,70.9045456 83.7488789,70.9045456 L83.7488789,70.9045456 L84.7533632,70.9045456 Z M111.874439,71.2789663 L111.874439,72.2774214 L109.363229,72.2774214 L109.363229,89.0015449 L111.874439,89.0015449 L111.874439,89.8751931 L104.215247,89.8751931 L104.215247,89.0015449 L106.600897,89.0015449 L106.600897,72.2774214 L104.215247,72.2774214 L104.215247,71.2789663 L111.874439,71.2789663 Z M35.5336323,71.2789663 L44.4484305,84.3836899 L44.4484305,73.6502972 L44.4262917,73.4776683 C44.1938942,72.1526145 42.6654709,72.1526145 42.0627803,72.1526145 L41.5605381,72.1526145 L41.5605381,71.2789663 L60.6457399,71.2789663 L60.6457399,77.7689246 L60.1434978,77.7689246 C59.4667477,72.4995354 57.8781057,72.1650916 54.1033272,72.1515644 L53.441083,72.1515152 C53.3651141,72.1516665 53.2883414,72.1518391 53.2107561,72.152002 L52.8609865,72.1526145 L52.8609865,79.8906418 L53.7399103,79.8906418 C56.6278027,79.8906418 56.7533632,76.2712419 56.7533632,76.2712419 L56.7533632,76.2712419 L57.3811659,76.2712419 L57.3811659,84.7581106 L56.7533632,84.7581106 C56.3766816,81.8875521 55.3721973,80.8890969 53.7399103,80.8890969 L53.7399103,80.8890969 L52.735426,80.8890969 L52.735426,89.0015449 L54.4932735,89.0015449 C58.2600897,89.0015449 59.6412556,88.2527035 60.2690583,83.0108141 L60.2690583,83.0108141 L60.896861,83.0108141 L60.896861,89.8751931 L47.3363229,89.8751931 L47.3363229,89.0015449 L49.8475336,89.0015449 L49.8475336,72.1526145 L47.7130045,72.1526145 C46.9596413,72.1526145 45.4529148,72.2774214 45.3273543,73.6502972 L45.3273543,73.6502972 L45.3273543,89.8751931 L44.9506726,89.8751931 C44.868215,89.8751931 41.9698895,85.73057 38.9939741,81.471064 L38.5879437,80.8898887 C37.1669542,78.8559318 35.7566428,76.8375299 34.6547085,75.2727868 L34.6547085,75.2727868 L34.6547085,87.3790553 C34.6547085,88.7519311 36.6636771,89.2511587 37.5426009,89.2511587 L37.5426009,89.2511587 L37.5426009,89.8751931 L30.8878924,89.8751931 L30.8878924,89.2511587 L30.9941431,89.2489218 C31.9183803,89.2114642 33.7757848,88.6991282 33.7757848,87.3790553 L33.7757848,87.3790553 L33.7757848,73.6502972 C33.6502242,72.1526145 32.3946188,72.1526145 31.3901345,72.1526145 L30.6367713,72.1526145 L30.6367713,71.2789663 L35.5336323,71.2789663 Z M83.6233184,75.2727868 L80.8609865,83.2604279 L86.5112108,83.2604279 L83.6233184,75.2727868 Z M71.1928251,72.2774214 L67.3004484,72.2774214 L67.3004484,80.0154487 L70.3139013,80.0154487 C72.6995516,80.0154487 73.5784753,78.0185384 73.5784753,76.0216282 C73.5784753,75.2727868 73.4529148,72.6518421 71.1928251,72.2774214 L71.1928251,72.2774214 Z M29.8834081,0.388651944 C32.6457399,-0.484996296 36.161435,0.139038161 39.3004484,2.01114153 C41.5605381,3.38401734 43.1928251,5.63054138 44.1973094,8.25148611 L44.1973094,8.25148611 L44.1973094,8.12667921 C45.4529148,4.38247247 48.5919283,2.01114153 52.2331839,2.01114153 L52.2331839,2.01114153 L108.233184,2.01114153 L107.605381,3.13440356 C105.721973,7.12822408 102.58296,9.12513435 98.1883408,9.12513435 L98.1883408,9.12513435 L97.5605381,9.12513435 C95.67713,12.7445342 92.6636771,14.7414445 88.3946188,14.7414445 C86.6367713,18.4856512 83.4977578,20.3577546 79.2286996,20.3577546 L79.2286996,20.3577546 L62.6547085,20.3577546 C62.7802691,20.7321752 62.7802691,21.2314028 62.7802691,21.7306304 C62.7802691,22.1050511 62.7802691,22.4794717 62.6547085,22.8538924 C63.9103139,22.9786993 65.4170404,23.1035062 67.0493274,23.2283131 C69.4349776,23.4779269 71.8206278,23.6027338 72.9506726,23.7275406 C73.4529148,23.8523475 74.0807175,23.8523475 74.5829596,23.8523475 C77.2197309,23.9771544 79.2286996,24.1019613 82.1165919,24.6011889 C86.2600897,25.3500302 89.6502242,27.2221336 92.2869955,30.217499 C93.2914798,31.340761 94.1704036,32.5888299 95.0493274,34.0865126 C95.9282511,35.7090022 96.8071749,37.3314918 97.5605381,39.0787883 L97.5605381,39.0787883 L97.5605381,39.2035952 C97.6233184,39.3284021 97.6782511,39.453209 97.7292601,39.5780159 L98.0196188,40.3268572 L98.0196188,40.3268572 L98.1883408,40.7012779 L98.4394619,41.3253123 C99.6950673,44.5702915 100.699552,47.1912362 101.704036,49.1881465 C103.964126,48.1896914 106.726457,48.8137258 107.856502,50.6858292 C107.919283,50.7794344 107.974215,50.8730395 108.025224,50.9666447 L108.315583,51.5282757 L108.315583,51.5282757 L108.484305,51.8090912 C108.986547,52.6827395 109.363229,53.4315808 110.242152,54.305229 L110.242152,54.305229 L111.623318,55.8029117 L109.73991,56.1773324 C108.986547,56.3021393 108.233184,56.4269462 107.605381,56.4269462 C102.70852,56.4269462 100.197309,51.9338981 97.6860987,45.4439398 L97.6860987,45.4439398 L97.6860987,54.4300359 C97.9372197,56.67656 97.4349776,57.5502082 94.044843,58.923084 L94.044843,58.923084 L91.6591928,59.7967323 L91.6591928,59.9215392 L112,59.9215392 L112,65.6626562 L0.251121076,65.6626562 L0.251121076,36.7074574 L6.52914798,34.9601609 C5.52466368,33.3376713 5.14798206,31.2159541 6.02690583,29.9678852 C6.78026906,28.8446232 8.28699552,27.8461681 10.1704036,27.8461681 L10.1704036,27.8461681 L10.2337652,27.7306061 C10.3413054,27.5514851 10.4633782,27.4301451 10.6726457,27.2221336 C11.426009,26.4732923 12.4304933,26.2236785 13.5605381,26.2236785 C15.3183857,26.3484854 17.3273543,27.2221336 19.0852018,28.8446232 L19.0852018,28.8446232 L21.7219731,24.8508027 L21.0941704,24.3515751 L20.9686099,24.2267682 C20.7174888,23.9771544 20.3408072,23.4779269 20.3408072,22.7290855 C20.3408072,21.9802442 21.0941704,21.1065959 22.7264574,20.981789 L22.7264574,20.981789 L24.9865471,20.7321752 C26.1165919,20.7321752 27.6233184,20.1081408 27.6233184,18.8600719 C27.6233184,18.3608443 27.2466368,17.9864236 26.7443946,17.9864236 C26.367713,17.9864236 25.2376682,18.735265 24.8609865,18.9848788 C23.8565022,19.7337201 22.8520179,20.2329477 21.7219731,20.2329477 C20.0896861,20.2329477 18.8340807,19.1096857 18.8340807,17.612003 C18.8340807,17.2375823 18.9596413,16.7383547 19.2107623,16.363934 L19.2107623,16.363934 L19.0753924,16.217676 C18.7732623,15.8627564 18.5672646,15.4122815 18.4573991,14.8662514 C18.4573991,14.3670238 18.4573991,13.4933755 19.2107623,12.6197273 C19.9641256,11.6212722 20.9686099,10.3732033 21.7219731,8.62590678 L21.7219731,8.62590678 L21.7219731,8.50109989 L22.3497758,7.25303097 C22.4753363,7.00341719 22.7264574,6.75380341 23.103139,6.50418962 C23.6053812,5.50573449 24.2331839,4.38247247 24.9865471,3.50882423 C25.6143498,2.63517599 26.6188341,2.01114153 27.2466368,1.51191397 C28,1.0126864 29.0044843,0.638265727 29.8834081,0.388651944 Z M65.6942758,40.701613 L65.3449593,40.7018557 C64.7927255,40.7047447 64.1823617,40.722079 63.6591928,40.8260848 L63.6591928,40.8260848 L67.8026906,47.5656569 C69.4349776,49.9369878 67.8026906,51.8090912 67.3004484,52.4331257 L67.3004484,52.4331257 L64.161435,55.8029117 L63.4080717,55.8029117 L59.0134529,55.0540704 C58.1345291,55.0540704 57.1300448,55.1788773 56.3766816,56.0525255 C55.6233184,56.9261738 55.4977578,58.1742427 55.8744395,59.7967323 L55.8744395,59.7967323 L55.8744395,59.9215392 L64.9147982,59.9215392 L72.8251121,51.5594774 C73.8295964,50.4362154 73.5784753,49.5625672 73.4529148,49.3129534 C73.2615845,48.6473166 72.5600399,47.184727 71.8480827,45.7531875 L71.5815869,45.2194329 C71.4490711,44.9549005 71.3183857,44.6950984 71.1928251,44.4454846 C70.8161435,43.4470295 70.3139013,42.5733813 70.0627803,41.9493468 C67.9485028,40.7817985 65.9441072,40.7064728 65.6942758,40.701613 Z M29.3811659,40.576471 C28.5022422,40.9508917 27.6233184,41.2005054 26.7443946,41.3253123 L26.7443946,41.3253123 L26.7443946,59.7967323 L29.1300448,59.7967323 C28.3766816,57.4254013 28.5022422,55.4284911 29.5067265,54.0556153 C30.3856502,52.6827395 32.1434978,51.9338981 34.1524664,52.058705 L34.1524664,52.058705 L34.529148,52.058705 C34.7802691,52.058705 34.9058296,51.9338981 34.9058296,51.6842843 L34.9058296,51.6842843 L34.9058296,43.9462571 C33.6502242,44.4454846 32.1434978,44.8199053 30.1345291,44.8199053 L30.1345291,44.8199053 L28.7533632,44.8199053 L29.0044843,43.4470295 C29.0044843,43.1974157 29.1300448,43.0726088 29.1300448,42.822995 C29.2556054,42.0741537 29.3811659,41.3253123 29.3811659,40.576471 Z M73.4529148,44.0710639 C74.3318386,45.9431673 75.2107623,47.6904638 75.4618834,48.564112 C76.0896861,50.0617947 75.5874439,51.6842843 74.3318386,53.0571601 L74.3318386,53.0571601 L67.9282511,59.7967323 L82.9955157,59.7967323 C82.1165919,58.1742427 81.8654709,56.4269462 82.367713,54.9292635 C82.8699552,53.5563877 84,52.6827395 85.3811659,52.4331257 L85.3811659,52.4331257 L89.5246637,51.5594774 L89.1479821,48.1896914 C89.0224215,47.3160431 88.7713004,47.0664293 87.7668161,46.9416225 C79.8565022,46.317588 75.9641256,45.194326 73.4529148,44.0710639 Z M61.0224215,41.3253123 C59.9650696,41.640614 59.085798,41.8674099 58.8344939,41.9311689 L58.7623318,41.9493468 L58.2349776,42.1600208 C57.5318386,42.423613 56.8286996,42.623304 56.1255605,42.822995 C52.8609865,43.8214502 49.7219731,44.8199053 44.9506726,44.8199053 L44.9506726,44.8199053 L44.8251121,44.8199053 C44.4484305,47.0664293 43.8206278,51.0602499 45.0762332,52.9323532 L45.0762332,52.9323532 L45.8295964,54.0556153 L44.573991,54.5548428 C43.8206278,54.9292635 43.6950673,55.1788773 43.6950673,55.3036842 C43.6950673,56.3021393 43.5695067,57.5502082 42.690583,58.5486634 C41.9372197,59.2975047 40.8071749,59.6719254 39.3004484,59.7967323 L39.3004484,59.7967323 L53.4887892,59.7967323 C52.9865471,57.1757876 53.7399103,55.553298 54.6188341,54.5548428 C55.7488789,53.3067739 57.632287,52.5579326 59.264574,52.8075464 L59.264574,52.8075464 L63.0313901,53.5563877 L65.2914798,51.0602499 C66.1704036,50.1866016 66.1704036,49.6873741 65.6681614,49.0633396 L65.6681614,49.0633396 L65.6681614,48.9385327 Z M13.5605381,57.3005944 L4.01793722,59.7967323 L23.103139,59.7967323 L13.5605381,57.3005944 Z M86.2600897,4.38247247 L52.1076233,4.38247247 C49.470852,4.38247247 47.2107623,6.12976895 46.3318386,8.87552056 L46.3318386,8.87552056 L44.4484305,15.7398996 C43.9461883,17.7368099 43.3183857,19.6089132 42.941704,20.7321752 C44.32287,21.4810166 45.8295964,22.8538924 45.8295964,25.7244509 C45.8295964,28.5950094 43.9461883,30.7167266 41.6860987,31.8399886 C42.1883408,32.5888299 42.4394619,33.4624782 42.4394619,34.4609333 C42.4394619,36.9570711 40.5560538,38.9539814 38.1704036,39.3284021 C37.793722,40.2020503 37.5426009,41.0756986 37.0403587,41.699733 L37.0403587,41.699733 L37.0403587,51.5594774 C37.0403587,52.9323532 35.9103139,54.1804222 34.4035874,54.1804222 L34.4035874,54.1804222 L34.0269058,54.1804222 C33.3991031,54.1804222 32.0179372,54.305229 31.264574,55.3036842 C30.6367713,56.1773324 30.6367713,57.5502082 31.264574,59.4223116 C32.6457399,59.7967323 34.7802691,59.4223116 35.7847534,58.0494358 L35.7847534,58.0494358 L36.161435,57.5502082 L37.0357758,57.5501302 C38.6067265,57.5486481 40.3363229,57.5190065 40.9327354,56.9261738 C41.058296,56.8013669 41.309417,56.5517531 41.309417,55.3036842 C41.309417,55.0540704 41.309417,54.0556153 42.5650224,53.0571601 C41.1838565,49.5625672 42.690583,43.9462571 42.8161435,43.3222226 L42.8161435,43.3222226 L43.0672646,42.4485744 L43.9461883,42.4485744 C48.9686099,42.6981881 51.8565022,41.699733 55.3721973,40.576471 C56.2511211,40.3268572 57.1300448,39.9524365 58.1345291,39.7028227 C58.5112108,39.5780159 62.4035874,38.3299469 65.5426009,38.3299469 C65.793722,38.3299469 68.6816143,38.3299469 71.5695067,40.2020503 L71.5695067,40.2020503 L71.6950673,40.3268572 L71.8224132,40.4074108 L71.8224132,40.4074108 L72.0768033,40.5679316 L72.0768033,40.5679316 L72.4605145,40.8070428 C74.9937581,42.3673096 77.9885478,43.7772877 88.0179372,44.5702915 C90.9058296,44.8199053 91.4080717,46.9416225 91.5336323,47.6904638 L91.5336323,47.6904638 L91.5336323,47.8152707 L92.0358744,53.3067739 L85.8834081,54.6796497 C85.2556054,54.8044566 84.8789238,55.1788773 84.6278027,55.8029117 C84.2511211,56.9261738 84.6278027,58.2990496 85.632287,59.6719254 L85.632287,59.6719254 L93.2914798,56.5517531 C93.6681614,56.4269462 95.0493274,55.8029117 95.426009,55.4284911 L95.426009,55.4284911 L95.426009,39.7028227 C94.9237668,38.4547538 94.2959641,37.2066849 93.6681614,36.0834229 C84.6278027,34.9601609 82.2421525,33.9617057 77.5964126,26.4732923 C76.7174888,26.4732923 75.7130045,26.3484854 74.7085202,26.3484854 C74.0807175,26.2236785 73.5784753,26.2236785 72.9506726,26.2236785 C71.6950673,26.0988716 69.4349776,25.9740647 66.9237668,25.7244509 C64.7892377,25.599644 62.6547085,25.4748371 61.3991031,25.3500302 C60.3946188,26.2236785 59.1390135,26.8477129 57.7578475,26.8477129 C56.6278027,26.8477129 55.7488789,26.4732923 54.2421525,25.8492578 L54.2421525,25.8492578 L53.9792601,25.7556526 C53.7320628,25.6620475 53.5201794,25.5684423 53.2376682,25.4748371 L53.2376682,25.4748371 L54.9955157,23.8523475 C55.3721973,23.9771544 55.6233184,24.1019613 56,24.2267682 C56.7533632,24.6011889 57.2556054,24.7259958 57.7578475,24.7259958 C59.264574,24.7259958 60.5201794,23.6027338 60.5201794,22.1050511 C60.5201794,21.2314028 60.3946188,20.8569821 60.2690583,20.7321752 L60.2690583,20.7321752 L52.6098655,20.7321752 L53.7399103,18.4856512 L61.0224215,18.4856512 C64.0358744,18.4856512 66.044843,17.4871961 67.5515695,15.240672 L67.5515695,15.240672 L55.6233184,15.240672 L56.7533632,12.994148 L70.1883408,12.994148 C73.2017937,12.994148 75.3363229,11.870886 76.8430493,9.62436191 L76.8430493,9.62436191 L58.2600897,9.62436191 L59.3901345,7.37783786 L79.8565022,7.37783786 C82.7443946,7.37783786 84.7533632,6.37938273 86.2600897,4.38247247 L86.2600897,4.38247247 Z M13.4349776,35.5841953 L2.51121076,38.4547538 L2.51121076,57.799822 L13.4349776,54.9292635 L24.3587444,57.799822 L24.3587444,38.4547538 L13.4349776,35.5841953 Z M106.098655,51.9338981 C105.596413,51.1850568 104.215247,50.8106361 103.210762,51.3098637 C104.340807,53.0571601 105.721973,54.0556153 107.479821,54.1804222 C107.2287,53.6811946 106.977578,53.3067739 106.726457,52.9323532 C106.475336,52.6827395 106.349776,52.3083188 106.098655,51.9338981 Z M12.3049327,49.0633396 L12.3049327,51.4346705 L5.02242152,53.3067739 L5.02242152,50.935443 L12.3049327,49.0633396 Z M14.690583,49.0633396 L21.9730942,50.935443 L21.9730942,53.3067739 L14.690583,51.4346705 L14.690583,49.0633396 Z M14.690583,44.3206777 L21.9730942,46.1927811 L21.9730942,48.564112 L14.690583,46.6920087 L14.690583,44.3206777 Z M12.3049327,44.3206777 L12.3049327,46.6920087 L5.02242152,48.564112 L5.02242152,46.1927811 L12.3049327,44.3206777 Z M14.690583,39.5780159 L21.9730942,41.4501192 L21.9730942,43.8214502 L14.690583,41.9493468 L14.690583,39.5780159 Z M12.3049327,39.5780159 L12.3049327,41.9493468 L5.02242152,43.8214502 L5.02242152,41.4501192 L12.3049327,39.5780159 Z M39.0493274,4.75689314 C39.1748879,6.8786103 37.9192825,9.24994124 36.0358744,10.622817 L36.0358744,10.622817 L36.6636771,14.11741 L35.2825112,14.11741 C34.4035874,14.11741 33.7757848,14.6166376 33.7757848,15.1158651 C33.7757848,15.3654789 33.9013453,15.8647065 34.0269058,16.4887409 C34.1524664,17.3623892 34.4035874,18.3608443 34.4035874,19.4841063 L34.4035874,19.4841063 L34.4035874,19.6089132 C34.4035874,23.6027338 30.0089686,26.0988716 25.7399103,26.0988716 L25.7399103,26.0988716 L25.4796607,26.0987004 C25.0966063,26.0973308 24.5261584,26.0850041 23.8565022,25.9740647 L23.8565022,25.9740647 L20.8430493,30.7167266 C20.9686099,30.8415335 21.2197309,31.2159541 21.3452915,31.4655679 C21.3452915,31.5903748 21.470852,31.7151817 21.470852,31.7151817 L21.470852,31.7151817 L21.5964126,31.8399886 C21.7219731,32.0896024 21.9730942,32.464023 22.0986547,32.7136368 L22.0986547,32.7136368 L22.0986547,32.8384437 C21.7219731,33.4624782 21.2197309,34.2113195 20.7174888,34.835354 C20.7174888,34.7105471 19.9641256,33.712092 19.9641256,33.5872851 C19.9641256,33.5872851 19.838565,33.3376713 19.7130045,33.2128644 C19.5874439,33.0880575 19.5874439,32.9632506 19.4618834,32.8384437 C19.0852018,32.2144093 18.5829596,31.4655679 18.0807175,30.9663403 C16.6995516,29.4686577 14.941704,28.4702025 13.5605381,28.4702025 C13.058296,28.4702025 12.5560538,28.5950094 12.3049327,28.8446232 C12.1793722,28.9694301 12.0538117,29.2190439 11.9282511,29.4686577 L11.9282511,29.4686577 L11.5515695,30.3423059 L10.5470852,30.217499 C9.29147982,30.0926921 8.28699552,30.5919197 7.78475336,31.340761 C7.53363229,31.7151817 7.78475336,33.4624782 8.78923767,34.4609333 L8.78923767,34.4609333 L13.4349776,33.2128644 L26.6188341,36.7074574 L26.6188341,38.9539814 C27.8744395,38.7043676 29.0044843,38.2051401 29.632287,37.5811056 L29.632287,37.5811056 L31.5156951,35.7090022 L31.6412556,38.3299469 L31.6412556,38.3299469 L31.6412556,42.4485744 C34.6547085,42.0741537 35.5336323,40.7012779 36.4125561,37.9555263 L36.4125561,37.9555263 L36.6636771,37.2066849 L37.5426009,37.2066849 C39.0493274,37.2066849 40.3049327,36.0834229 40.3049327,34.5857402 C40.3049327,33.712092 39.8026906,32.8384437 39.0493274,32.3392162 L39.0493274,32.3392162 L36.6636771,30.7167266 L39.5515695,30.217499 C41.5605381,29.8430783 43.6950673,28.0957818 43.6950673,25.7244509 C43.6950673,23.7275406 42.690583,23.1035062 41.1838565,22.2298579 L41.1838565,22.2298579 L40.3049327,21.7306304 L40.6816143,20.8569821 C41.058296,19.858527 41.8116592,17.7368099 42.3139013,15.7398996 L42.3139013,15.7398996 L42.4394619,15.240672 C42.690583,13.9926031 42.941704,12.8693411 42.8161435,11.9956928 C42.5650224,9.12513435 41.1838565,6.37938273 39.0493274,4.75689314 Z M80.4843049,26.9725198 C83.8744395,32.0896024 86.0089686,32.9632506 92.0358744,33.712092 C91.5336323,33.0880575 91.1569507,32.464023 90.6547085,31.9647955 C88.3946188,29.4686577 85.5067265,27.8461681 81.8654709,27.2221336 C81.3632287,27.0973267 80.9865471,26.9725198 80.4843049,26.9725198 Z M36.4125561,3.75843801 L30.6367713,7.25303097 L30.2600897,7.25303097 C29.632287,7.12822408 29.1300448,7.12822408 28.6278027,7.12822408 C25.9910314,7.12822408 24.6098655,8.12667921 24.3587444,8.50109989 L24.3587444,8.50109989 L24.1076233,8.87552056 C23.3542601,11.3716584 26.1165919,10.2483964 26.7443946,10.7476239 C27.3721973,11.2468515 26.2421525,12.2453066 26.2421525,12.2453066 C25.9910314,12.4949204 25.7399103,12.8693411 25.2376682,12.8693411 C24.735426,12.8693411 24.3587444,12.6197273 24.3587444,12.2453066 C24.3587444,11.6212722 23.8565022,11.2468515 23.3542601,11.2468515 C22.8520179,11.2468515 22.7264574,11.4964653 22.3497758,11.9956928 C21.8475336,12.8693411 21.3452915,13.4933755 20.8430493,13.9926031 C20.8430493,14.11741 20.7174888,14.2422169 20.7174888,14.3670238 C20.7174888,14.4918307 21.0941704,14.8662514 21.3452915,14.9910582 L21.3452915,14.9910582 L22.4753363,15.7398996 L21.2197309,17.4871961 L21.2197309,17.4871961 L21.2197309,17.612003 C21.2197309,17.7368099 21.470852,17.9864236 21.7219731,17.9864236 C22.0986547,17.9864236 22.7264574,17.612003 23.4798206,17.1127754 C24.6098655,16.363934 25.7399103,15.7398996 26.6188341,15.7398996 C28.2511211,15.7398996 29.5067265,17.3623892 29.5067265,19.1096857 C29.2556054,21.6058235 26.7443946,22.6042786 24.3587444,22.7290855 L24.3587444,22.7290855 L22.3497758,22.6042786 C22.2242152,22.6042786 22.0986547,22.7290855 22.0986547,22.8538924 C22.0986547,22.9786993 22.0986547,23.1035062 22.2242152,22.9786993 C22.7264574,23.35312 24.735426,23.4779269 24.8609865,23.4779269 L24.8609865,23.4779269 L24.9865471,23.4779269 C28.1255605,23.6027338 31.8923767,21.8554373 31.8923767,19.1096857 C31.8923767,18.2360374 31.6412556,17.3623892 31.5156951,16.4887409 C31.3901345,15.8647065 31.264574,15.240672 31.264574,14.7414445 C31.264574,13.3685687 32.2690583,12.2453066 33.7757848,11.7460791 L33.7757848,11.7460791 L33.2735426,9.12513435 L34.0269058,8.75071367 C35.7847534,7.75225854 36.7892377,5.75534828 36.5381166,4.0080518 L36.5381166,4.0080518 L36.5288158,3.99822903 C36.4997509,3.9664495 36.4125561,3.86244376 36.4125561,3.75843801 L36.4125561,3.75843801 Z M85.632287,15.240672 L70.1883408,15.240672 C69.5605381,16.4887409 68.8071749,17.612003 67.8026906,18.4856512 L67.8026906,18.4856512 L79.2286996,18.4856512 C82.2421525,18.4856512 84.3766816,17.4871961 85.632287,15.240672 L85.632287,15.240672 Z M94.7982063,9.62436191 L79.3542601,9.62436191 C78.7264574,10.9972377 77.8475336,12.1204997 76.8430493,12.994148 L76.8430493,12.994148 L88.2690583,12.994148 C91.4080717,12.994148 93.5426009,11.870886 94.7982063,9.62436191 L94.7982063,9.62436191 Z M104.466368,4.38247247 L89.1479821,4.38247247 C88.5201794,5.50573449 87.6412556,6.50418962 86.6367713,7.37783786 L86.6367713,7.37783786 L98.0627803,7.37783786 C100.950673,7.37783786 102.959641,6.37938273 104.466368,4.38247247 L104.466368,4.38247247 Z M34.1524664,2.5103691 C32.896861,2.26075532 31.6412556,2.26075532 30.5112108,2.5103691 C29.7578475,2.63517599 29.0044843,3.00959666 28.5022422,3.38401734 C27.8744395,3.8832449 27.2466368,4.38247247 26.8699552,4.88170004 C26.8281016,4.92330233 26.8001993,4.9510372 26.7769474,4.96952711 L26.766,4.975 L26.8417681,4.96029563 C27.2261371,4.8947993 27.6745676,4.88388325 28.1870596,4.8820639 L28.5022422,4.88170004 C28.6278027,4.88170004 28.7533632,4.88950047 28.8789238,4.90120111 L29.632287,4.98700585 L29.632287,4.98700585 L30.0089686,5.00650693 Z" id="Combined-Shape" fill="#FFFFFF"/>
    </g>
</g>
  </g>
</g>
    <g transform="translate(180.0, -240.0) scale(1 1)"><g>
    <g transform="translate(0, 0) scale(13 13)" opacity="0.1"><title>generali/icon/generali_blanco</title>
    <g id="generali/icon/generali_blanco" stroke="none" stroke-width="1" fill="none" fill-rule="evenodd">
        <path d="M37.1838565,83.0898948 L37.1838565,88.6424148 L36.7533632,88.6424148 C36.083707,84.1814158 34.8188009,83.8544868 31.6736607,83.83691 L30.8474605,83.8367473 C30.702984,83.8370565 30.5550573,83.8373494 30.4035874,83.8373494 L30.4035874,83.8373494 L30.4035874,90.4576617 L31.1569507,90.4576617 C33.632287,90.4576617 33.7399103,87.361064 33.7399103,87.361064 L33.7399103,87.361064 L34.2780269,87.361064 L34.2780269,94.6220516 L33.7399103,94.6220516 C33.4170404,92.1661293 32.5560538,91.3118955 31.1569507,91.3118955 L31.1569507,91.3118955 L30.2959641,91.3118955 L30.2959641,98.2525454 L31.8026906,98.2525454 C35.0313901,98.2525454 36.2152466,97.61187 36.7533632,93.1271424 L36.7533632,93.1271424 L37.2914798,93.1271424 L37.2914798,99 L25.6681614,99 L25.6681614,98.2525454 L27.8206278,98.2525454 L27.8206278,83.8373494 L25.8834081,83.8373494 L25.8834081,83.0898948 L37.1838565,83.0898948 Z M23.838565,82.6627779 L23.838565,88.4288563 L23.4080717,88.4288563 C22.8699552,85.972934 21.470852,83.3034533 18.6726457,83.3034533 C15.0962401,83.3034533 14.9128347,88.489512 14.9057806,90.379169 L14.9055166,90.8731544 C14.8952167,92.5992143 14.6601235,98.2525454 18.6726457,98.2525454 C19.2107623,98.2525454 21.2556054,97.7186492 21.5784753,96.4372985 L21.5784753,96.4372985 L21.5784753,91.3118955 L19.426009,91.3118955 L19.426009,90.5644409 L25.6681614,90.5644409 L25.6681614,91.2051163 L23.9461883,91.2051163 L23.9461883,98.7864415 C23.9461883,98.7864415 23.5321076,98.4620996 23.0766188,98.1053235 L22.7709148,97.8658711 C22.315426,97.509095 21.9013453,97.1847531 21.9013453,97.1847531 C21.2556054,98.0389869 20.1793722,98.8932208 18.5650224,98.8932208 C13.3991031,98.8932208 12,93.6610385 12,90.6712201 C12,87.361064 13.8295964,82.6627779 18.5650224,82.6627779 C21.0403587,82.6627779 21.9013453,83.9441287 21.9013453,83.9441287 C21.9013453,84.0509079 23.838565,82.6627779 23.838565,82.6627779 L23.838565,82.6627779 Z M84.6457399,82.6627779 L90.5650224,98.2525454 L92.1793722,98.2525454 L92.1793722,83.8373494 L90.1345291,83.8373494 L90.1345291,83.0898948 L96.8071749,83.0898948 L96.8071749,83.8373494 L94.7623318,83.8373494 L94.7623318,98.1457662 L94.9775785,98.1457662 C98.206278,98.1457662 99.3901345,97.5050908 99.9282511,93.0203632 L99.9282511,93.0203632 L100.681614,93.0203632 L100.681614,98.8932208 L86.1524664,98.8932208 L86.1524664,98.1457662 L87.9820628,98.1457662 C87.8744395,98.1457662 86.2600897,93.874597 86.2600897,93.874597 L86.2600897,93.874597 L80.8789238,93.874597 C80.8789238,93.874597 79.8026906,96.4372985 79.9103139,97.1847531 C80.0179372,98.1457662 81.4170404,98.1457662 81.632287,98.1457662 L81.632287,98.1457662 L81.632287,98.8932208 L77.7578475,98.8932208 C71.5156951,98.8932208 77.1121076,91.6322332 72.3766816,91.2051163 L72.3766816,91.2051163 L69.6860987,91.2051163 L69.6860987,98.1457662 L71.7309417,98.1457662 L71.7309417,98.8932208 L65.1659193,98.8932208 L65.1659193,98.1457662 L67.2107623,98.1457662 L67.2107623,83.7305702 L65.1659193,83.7305702 L65.1659193,82.9831156 L73.1300448,82.9831156 C75.9282511,83.0898948 77.6502242,84.2644664 77.6502242,86.7203886 C77.6502242,90.137324 73.9910314,90.8847786 73.9910314,90.8847786 C73.9910314,90.9915578 75.3901345,90.9915578 76.2511211,91.8457916 C76.896861,92.5932462 77.0044843,94.1949347 77.0044843,94.9423893 L77.0044843,94.9423893 L77.0044843,97.7186492 C77.0044843,97.9322077 76.896861,98.2525454 77.6502242,98.2525454 C78.5112108,98.0389869 78.8340807,96.8644154 78.8340807,96.8644154 C78.8340807,96.8136515 79.9530046,93.6013788 81.1269575,90.2450953 L81.3702805,89.5496268 C82.5061951,86.3037558 83.6250099,83.1176334 83.7691367,82.7072432 L83.7847534,82.6627779 L84.6457399,82.6627779 Z M107.892377,82.9831156 L107.892377,83.8373494 L105.73991,83.8373494 L105.73991,98.1457662 L107.892377,98.1457662 L107.892377,98.8932208 L101.327354,98.8932208 L101.327354,98.1457662 L103.372197,98.1457662 L103.372197,83.8373494 L101.327354,83.8373494 L101.327354,82.9831156 L107.892377,82.9831156 Z M42.4573991,82.9831156 L50.0986547,94.1949347 L50.0986547,85.011921 L50.0774697,84.8519496 C49.8709978,83.7305702 48.5685319,83.7305702 48.0538117,83.7305702 L47.6233184,83.7305702 L47.6233184,82.9831156 L63.9820628,82.9831156 L63.9820628,88.5356355 L63.5515695,88.5356355 C62.9656203,83.9816991 61.5821292,83.7358799 58.2753477,83.7294004 L57.6460933,83.729968 C57.5013379,83.7302773 57.3532636,83.7305702 57.2017937,83.7305702 L57.309417,83.7305702 L57.309417,90.3508824 L58.0627803,90.3508824 C60.5381166,90.3508824 60.6457399,87.2542848 60.6457399,87.2542848 L60.6457399,87.2542848 L61.1838565,87.2542848 L61.1838565,94.5152724 L60.6457399,94.5152724 C60.32287,92.0593501 59.4618834,91.2051163 58.0627803,91.2051163 L58.0627803,91.2051163 L57.2017937,91.2051163 L57.2017937,98.1457662 L58.7085202,98.1457662 C61.9372197,98.1457662 63.1210762,97.5050908 63.6591928,93.0203632 L63.6591928,93.0203632 L64.1973094,93.0203632 L64.1973094,98.8932208 L52.573991,98.8932208 L52.573991,98.1457662 L54.7264574,98.1457662 L54.7264574,83.7305702 L52.896861,83.7305702 C52.2511211,83.7305702 50.9596413,83.8373494 50.8520179,85.011921 L50.8520179,85.011921 L50.8520179,98.8932208 L50.529148,98.8932208 C50.454506,98.8932208 47.6879372,94.9383615 44.9940103,91.0895394 L44.6188631,90.5535913 C43.5588583,89.0393368 42.5303052,87.571178 41.7040359,86.4000509 L41.7040359,86.4000509 L41.7040359,96.7576362 C41.7040359,97.9322077 43.426009,98.3593246 44.1793722,98.3593246 L44.1793722,98.3593246 L44.1793722,98.8932208 L38.4753363,98.8932208 L38.4753363,98.3593246 L38.578873,98.3568761 C39.3751812,98.3207711 40.9506726,97.8811394 40.9506726,96.7576362 L40.9506726,96.7576362 L40.9506726,85.011921 C40.8430493,83.7305702 39.7668161,83.7305702 38.9058296,83.7305702 L38.2600897,83.7305702 L38.2600897,82.9831156 L42.4573991,82.9831156 Z M83.67713,86.4000509 L81.309417,93.2339216 L86.1524664,93.2339216 L83.67713,86.4000509 Z M73.0224215,83.8373494 L69.6860987,83.8373494 L69.6860987,90.4576617 L72.2690583,90.4576617 C74.3139013,90.4576617 75.0672646,88.749194 75.0672646,87.0407263 C75.0672646,86.4000509 74.9596413,84.1576871 73.0224215,83.8373494 L73.0224215,83.8373494 Z M37.6143498,22.3325133 C39.9820628,21.5850587 42.9955157,22.1189549 45.6860987,23.7206433 C47.6233184,24.8952148 49.0224215,26.817241 49.8834081,29.0596048 L49.8834081,29.0596048 L49.8834081,28.9528255 C50.9596413,25.7494487 53.6502242,23.7206433 56.7713004,23.7206433 L56.7713004,23.7206433 L104.7713,23.7206433 L104.233184,24.6816564 C102.618834,28.0985917 99.9282511,29.8070594 96.161435,29.8070594 L96.161435,29.8070594 L95.6233184,29.8070594 C94.0089686,32.903657 91.426009,34.6121247 87.7668161,34.6121247 C86.2600897,37.8155016 83.5695067,39.41719 79.9103139,39.41719 L79.9103139,39.41719 L65.7040359,39.41719 C65.8116592,39.7375277 65.8116592,40.1646446 65.8116592,40.5917615 C65.8116592,40.9120992 65.8116592,41.2324369 65.7040359,41.5527746 C66.7802691,41.6595538 68.0717489,41.7663331 69.470852,41.8731123 C71.5156951,42.0866708 73.5605381,42.19345 74.529148,42.3002292 C74.9596413,42.4070084 75.4977578,42.4070084 75.9282511,42.4070084 C78.1883408,42.5137877 79.9103139,42.6205669 82.3856502,43.0476838 C85.9372197,43.6883592 88.8430493,45.2900476 91.103139,47.8527491 C91.9641256,48.8137622 92.7174888,49.8815545 93.470852,51.1629053 C94.2242152,52.5510352 94.9775785,53.9391652 95.6233184,55.4340744 L95.6233184,55.4340744 L95.6233184,55.5408537 C95.838565,55.9679706 95.9461883,56.3950875 96.161435,56.8222044 L96.161435,56.8222044 L96.3766816,57.3561006 C97.4529148,60.1323605 98.3139013,62.3747243 99.1748879,64.083192 C101.112108,63.2289582 103.479821,63.7628543 104.44843,65.3645428 C104.663677,65.6848804 104.7713,66.0052181 104.986547,66.3255558 C105.41704,67.0730104 105.73991,67.7136858 106.493274,68.4611404 L106.493274,68.4611404 L107.67713,69.7424912 L106.06278,70.0628288 C105.41704,70.1696081 104.7713,70.2763873 104.233184,70.2763873 C100.035874,70.2763873 97.8834081,66.432335 95.7309417,60.8798151 L95.73,60.88 L95.7309417,68.5679196 C95.9396657,70.4317025 95.5411926,71.1910215 92.8672636,72.3063247 L92.6098655,72.4119719 L90.5650224,73.1594265 L90.5650224,73.2662057 L108,73.2662057 L108,78.1780503 L12.2152466,78.1780503 L12.2152466,53.4052691 L17.5964126,51.9103599 C16.735426,50.5222299 16.4125561,48.706983 17.1659193,47.6391907 C17.8116592,46.6781776 19.103139,45.8239438 20.7174888,45.8239438 L20.7174888,45.8239438 L20.7829238,45.7069138 C20.8724664,45.5634025 20.9757848,45.4608944 21.1479821,45.2900476 C21.793722,44.6493723 22.6547085,44.4358138 23.6233184,44.4358138 C25.1300448,44.542593 26.8520179,45.2900476 28.3587444,46.6781776 L28.3587444,46.6781776 L30.6188341,43.2612423 L30.0807175,42.8341254 L29.9730942,42.7273461 C29.7578475,42.5137877 29.4349776,42.0866708 29.4349776,41.4459954 C29.4349776,40.80532 30.0807175,40.0578654 31.4798206,39.9510862 L31.4798206,39.9510862 L33.4170404,39.7375277 C34.3856502,39.7375277 35.67713,39.2036316 35.67713,38.1358393 C35.67713,37.7087224 35.3542601,37.3883847 34.9237668,37.3883847 C34.6008969,37.3883847 33.632287,38.02906 33.309417,38.2426185 C32.4484305,38.8832939 31.5874439,39.3104108 30.6188341,39.3104108 C29.2197309,39.3104108 28.1434978,38.3493977 28.1434978,37.068047 C28.1434978,36.7477093 28.2511211,36.3205924 28.4663677,36.0002547 L28.4663677,36.0002547 L28.3503363,35.8751228 C28.0913677,35.5714693 27.9147982,35.1860631 27.8206278,34.7189039 C27.8206278,34.291787 27.8206278,33.5443324 28.4663677,32.7968778 C29.1121076,31.942644 29.9730942,30.8748517 30.6188341,29.3799425 L30.6188341,29.3799425 L30.6188341,29.2731632 L31.1569507,28.2053709 C31.264574,27.9918125 31.4798206,27.778254 31.8026906,27.5646956 C32.2331839,26.7104617 32.7713004,25.7494487 33.4170404,25.0019941 C33.955157,24.2545395 34.8161435,23.7206433 35.3542601,23.2935264 C36,22.8664095 36.8609865,22.5460718 37.6143498,22.3325133 Z M68.314372,56.8225935 L68.2869955,56.8222044 L67.9529327,56.8230586 C67.4948879,56.8264756 66.9955157,56.8435603 66.5650224,56.9289836 L66.5650224,56.9289836 L70.1165919,62.695062 C71.5156951,64.7238674 70.1165919,66.3255558 69.6860987,66.859452 L69.6860987,66.859452 L66.9955157,69.7424912 L66.3497758,69.7424912 L62.5829596,69.1018158 C61.8295964,69.1018158 60.9686099,69.208595 60.32287,69.9560496 C59.67713,70.7035042 59.5695067,71.7712965 59.8923767,73.1594265 L59.8923767,73.1594265 L59.8923767,73.2662057 L67.6412556,73.2662057 L74.4215247,66.1119974 C75.2825112,65.1509843 75.0672646,64.4035297 74.9596413,64.1899712 C74.8010385,63.6392152 74.2334075,62.4507417 73.6442486,61.2653194 L73.266351,60.5099875 C73.1834093,60.3450316 73.1017229,60.1829402 73.0224215,60.0255813 C72.6995516,59.1713475 72.2690583,58.4238928 72.0538117,57.8899967 C70.2549648,56.8984753 68.5489155,56.8276523 68.314372,56.8225935 Z M74.9596413,59.7052436 C75.7130045,61.306932 76.4663677,62.8018413 76.6816143,63.5492959 C77.2197309,64.8306466 76.7892377,66.2187766 75.7130045,67.3933481 L75.7130045,67.3933481 L70.2242152,73.1594265 L83.1390135,73.1594265 C82.3856502,71.7712965 82.1704036,70.2763873 82.6008969,68.9950366 C83.0313901,67.820465 84,67.0730104 85.1838565,66.859452 L85.1838565,66.859452 L88.735426,66.1119974 L88.4125561,63.2289582 C88.3049327,62.4815036 88.0896861,62.2679451 87.2286996,62.1611659 C80.4484305,61.6272697 77.1121076,60.6662567 74.9596413,59.7052436 Z M64.3049327,57.3561006 C63.2286996,57.6764382 62.367713,57.8899967 62.367713,57.8899967 L62.367713,57.8899967 L61.9156951,58.07024 C61.3130045,58.2957578 60.7103139,58.4666045 60.1076233,58.6374513 C59.9910314,58.6730444 59.8746263,58.7086375 59.7582991,58.7441687 L59.060398,58.9561206 C56.6149103,59.6918962 54.1076233,60.345919 50.529148,60.345919 L50.529148,60.345919 L50.4215247,60.345919 C50.0986547,62.2679451 49.5605381,65.6848804 50.6367713,67.2865689 L50.6367713,67.2865689 L51.2825112,68.2475819 L50.206278,68.6746989 C49.5605381,68.9950366 49.4529148,69.208595 49.4529148,69.3153742 C49.4529148,70.1696081 49.3452915,71.2374004 48.5919283,72.0916342 C47.9461883,72.7323096 46.9775785,73.0526473 45.6860987,73.1594265 L45.6860987,73.1594265 L57.8475336,73.1594265 C57.4170404,70.9170627 58.0627803,69.5289327 58.8161435,68.6746989 C59.7847534,67.6069066 61.3991031,66.9662312 62.7982063,67.1797897 L62.7982063,67.1797897 L66.0269058,67.820465 L67.9641256,65.6848804 C68.7174888,64.9374258 68.7174888,64.5103089 68.2869955,63.9764128 L68.2869955,63.9764128 L68.2869955,63.8696335 Z M37.1838565,56.7154252 C36.4304933,57.0357629 35.67713,57.2493213 34.9237668,57.3561006 L34.9237668,57.3561006 L34.9237668,73.1594265 L36.9686099,73.1594265 C36.32287,71.1306211 36.4304933,69.4221535 37.2914798,68.2475819 C38.044843,67.0730104 39.5515695,66.432335 41.2735426,66.5391143 L41.2735426,66.5391143 L41.5964126,66.5391143 C41.8116592,66.5391143 41.9192825,66.432335 41.9192825,66.2187766 L41.9192825,66.2187766 L41.9192825,59.5984644 C40.8430493,60.0255813 39.5515695,60.345919 37.8295964,60.345919 L37.8295964,60.345919 L36.6457399,60.345919 L36.8609865,59.1713475 C36.8609865,58.957789 36.9686099,58.8510098 36.9686099,58.6374513 C37.0762332,57.9967759 37.1838565,57.3561006 37.1838565,56.7154252 Z M23.6233184,71.0238419 L15.4439462,73.1594265 L31.8026906,73.1594265 L23.6233184,71.0238419 Z M85.9372197,25.7494487 L56.6636771,25.7494487 C54.4035874,25.7494487 52.4663677,27.2443579 51.7130045,29.5935009 L51.7130045,29.5935009 L50.0986547,35.4663585 C49.6681614,37.1748262 49.1300448,38.7765146 48.8071749,39.7375277 C49.9910314,40.3782031 51.2825112,41.5527746 51.2825112,44.0086969 C51.2825112,46.4646192 49.6681614,48.2798661 47.7309417,49.2408791 C48.161435,49.8815545 48.3766816,50.6290091 48.3766816,51.4832429 C48.3766816,53.6188275 46.7623318,55.3272952 44.7174888,55.6476329 C44.3946188,56.3950875 44.1793722,57.1425421 43.7488789,57.6764382 L43.7488789,57.6764382 L43.7488789,66.1119974 C43.7488789,67.2865689 42.7802691,68.3543612 41.4887892,68.3543612 L41.4887892,68.3543612 L41.1659193,68.3543612 C40.6278027,68.3543612 39.4439462,68.4611404 38.7982063,69.3153742 C38.2600897,70.0628288 38.2600897,71.2374004 38.7982063,72.8390888 C39.9820628,73.1594265 41.8116592,72.8390888 42.6726457,71.6645173 L42.6726457,71.6645173 L42.9955157,71.2374004 L43.7685877,71.2373088 C45.1087859,71.2357525 46.5769806,71.2077395 47.0852018,70.7035042 C47.1928251,70.596725 47.4080717,70.3831665 47.4080717,69.3153742 C47.4080717,69.1018158 47.4080717,68.2475819 48.4843049,67.3933481 C47.3004484,64.4035297 48.5919283,59.5984644 48.6995516,59.0645682 L48.6995516,59.0645682 L48.9147982,58.3171136 L49.6681614,58.3171136 C53.9730942,58.5306721 56.4484305,57.6764382 59.4618834,56.7154252 C60.2152466,56.5018667 60.9686099,56.181529 61.8295964,55.9679706 C62.1524664,55.8611913 65.4887892,54.7933991 68.1793722,54.7933991 L68.1793722,54.7933991 L68.2456646,54.7937901 C68.7040359,54.7996556 71.0246637,54.8935046 73.3452915,56.3950875 L73.3452915,56.3950875 L73.4529148,56.5018667 L73.571156,56.5765207 C73.7286647,56.6759342 73.8857748,56.7748335 74.0447185,56.8730605 L74.2847882,57.019877 C76.4224813,58.3119526 79.0780269,59.472109 87.4439462,60.1323605 C89.9192825,60.345919 90.3497758,62.1611659 90.4573991,62.8018413 L90.4573991,62.8018413 L90.4573991,62.9086205 L90.8878924,67.6069066 L85.6143498,68.7814781 C85.0762332,68.8882573 84.7533632,69.208595 84.5381166,69.7424912 C84.2152466,70.7035042 84.5381166,71.8780757 85.3991031,73.0526473 L85.3991031,73.0526473 L91.9641256,70.3831665 C92.2869955,70.2763873 93.470852,69.7424912 93.793722,69.4221535 L93.793722,69.4221535 L93.793722,55.9679706 C93.3632287,54.9001783 92.8251121,53.832386 92.2869955,52.8713729 C84.5381166,51.9103599 82.4932735,51.056126 78.5112108,44.6493723 C77.7578475,44.6493723 76.896861,44.542593 76.0358744,44.542593 C75.4977578,44.4358138 75.0672646,44.4358138 74.529148,44.4358138 C73.4529148,44.3290346 71.5156951,44.2222553 69.3632287,44.0086969 C67.5336323,43.9019177 65.7040359,43.7951384 64.6278027,43.6883592 C63.7668161,44.4358138 62.690583,44.96971 61.5067265,44.96971 C60.5381166,44.96971 59.7847534,44.6493723 58.4932735,44.1154761 L58.4932735,44.1154761 L58.2679372,44.0353917 L58.2679372,44.0353917 L57.8576233,43.8752229 L57.8576233,43.8752229 L57.632287,43.7951384 L59.1390135,42.4070084 C59.2197309,42.4337033 59.293722,42.4603981 59.3643498,42.4870929 L59.7746637,42.6472617 L59.7746637,42.6472617 L60,42.7273461 C60.6457399,43.0476838 61.0762332,43.1544631 61.5067265,43.1544631 C62.7982063,43.1544631 63.8744395,42.19345 63.8744395,40.9120992 C63.8744395,40.1646446 63.7668161,39.8443069 63.6591928,39.7375277 L63.6591928,39.7375277 L57.0941704,39.7375277 L58.0627803,37.8155016 L64.3049327,37.8155016 C66.8878924,37.8155016 68.6098655,36.9612678 69.9013453,35.0392416 L69.9013453,35.0392416 L59.67713,35.0392416 L60.6457399,33.1172155 L72.161435,33.1172155 C74.7443946,33.1172155 76.573991,32.1562024 77.8654709,30.2341763 L77.8654709,30.2341763 L61.9372197,30.2341763 L62.9058296,28.3121502 L80.4484305,28.3121502 C82.9237668,28.3121502 84.6457399,27.4579163 85.9372197,25.7494487 L85.9372197,25.7494487 Z M23.5156951,52.444256 L14.1524664,54.9001783 L14.1524664,71.4509588 L23.5156951,68.9950366 L32.8789238,71.4509588 L32.8789238,54.9001783 L23.5156951,52.444256 Z M102.941704,66.432335 C102.511211,65.7916597 101.327354,65.471322 100.466368,65.8984389 C101.434978,67.3933481 102.618834,68.2475819 104.125561,68.3543612 C103.910314,67.9272443 103.695067,67.6069066 103.479821,67.2865689 C103.264574,67.0730104 103.156951,66.7526727 102.941704,66.432335 Z M22.5470852,63.9764128 L22.5470852,66.0052181 L16.3049327,67.6069066 L16.3049327,65.5781012 L22.5470852,63.9764128 Z M24.5919283,63.9764128 L30.8340807,65.5781012 L30.8340807,67.6069066 L24.5919283,66.0052181 L24.5919283,63.9764128 Z M24.5919283,59.9188021 L30.8340807,61.5204905 L30.8340807,63.5492959 L24.5919283,61.9476074 L24.5919283,59.9188021 Z M22.5470852,59.9188021 L22.5470852,61.9476074 L16.3049327,63.5492959 L16.3049327,61.5204905 L22.5470852,59.9188021 Z M24.5919283,55.8611913 L30.8340807,57.4628798 L30.8340807,59.4916851 L24.5919283,57.8899967 L24.5919283,55.8611913 Z M22.5470852,55.8611913 L22.5470852,57.8899967 L16.3049327,59.4916851 L16.3049327,57.4628798 L22.5470852,55.8611913 Z M45.470852,26.0697864 C45.5784753,27.8850333 44.5022422,29.9138386 42.8878924,31.0884101 L42.8878924,31.0884101 L43.426009,34.0782286 L42.2421525,34.0782286 C41.4887892,34.0782286 40.9506726,34.5053455 40.9506726,34.9324624 C40.9506726,35.1460209 41.058296,35.5731378 41.1659193,36.1070339 C41.2735426,36.8544885 41.4887892,37.7087224 41.4887892,38.6697354 L41.4887892,38.6697354 L41.4887892,38.7765146 C41.4887892,42.19345 37.7219731,44.3290346 34.0627803,44.3290346 L34.0627803,44.3290346 L33.955157,44.3290346 C33.632287,44.3290346 33.0941704,44.3290346 32.4484305,44.2222553 L32.4484305,44.2222553 L29.8654709,48.2798661 C29.9730942,48.3866453 30.1883408,48.706983 30.2959641,48.9205414 C30.2959641,49.0273207 30.4035874,49.1340999 30.4035874,49.1340999 L30.4035874,49.1340999 L30.5112108,49.2408791 C30.5381166,49.2942687 30.5717489,49.3543321 30.6087444,49.4177322 L30.8441704,49.8114806 L30.8441704,49.8114806 L30.941704,49.9883337 L30.941704,49.9883337 L30.941704,50.095113 C30.6188341,50.6290091 30.1883408,51.2696845 29.7578475,51.8035806 C29.7578475,51.6968014 29.1121076,50.8425676 29.1121076,50.7357883 C29.1121076,50.7357883 29.0044843,50.5222299 28.896861,50.4154506 C28.7892377,50.3086714 28.7892377,50.2018922 28.6816143,50.095113 C28.3587444,49.5612168 27.9282511,48.9205414 27.4977578,48.4934245 C26.3139013,47.2120738 24.8071749,46.3578399 23.6233184,46.3578399 C23.1928251,46.3578399 22.7623318,46.4646192 22.5470852,46.6781776 C22.4394619,46.7849569 22.3318386,46.9985153 22.2242152,47.2120738 L22.2242152,47.2120738 L21.9013453,47.9595284 L21.0403587,47.8527491 C19.9641256,47.7459699 19.103139,48.1730868 18.6726457,48.8137622 C18.4573991,49.1340999 18.6726457,50.6290091 19.5336323,51.4832429 L19.5336323,51.4832429 L23.5156951,50.4154506 L34.8161435,53.4052691 L34.8161435,55.3272952 C35.8923767,55.1137367 36.8609865,54.6866198 37.3991031,54.1527237 L37.3991031,54.1527237 L39.0134529,52.5510352 L39.1210762,54.7933991 L39.1210762,54.7933991 L39.1210762,58.3171136 C41.7040359,57.9967759 42.4573991,56.8222044 43.2107623,54.4730614 L43.2107623,54.4730614 L43.426009,53.832386 L44.1793722,53.832386 C45.470852,53.832386 46.5470852,52.8713729 46.5470852,51.5900222 C46.5470852,50.8425676 46.1165919,50.095113 45.470852,49.667996 L45.470852,49.667996 L43.426009,48.2798661 L45.9013453,47.8527491 C47.6233184,47.5324115 49.4529148,46.0375022 49.4529148,44.0086969 C49.4529148,42.3002292 48.5919283,41.7663331 47.3004484,41.0188785 L47.3004484,41.0188785 L46.5470852,40.5917615 L46.8699552,39.8443069 C47.1928251,38.9900731 47.838565,37.1748262 48.2690583,35.4663585 L48.2690583,35.4663585 L48.3766816,35.0392416 C48.5919283,33.9714493 48.8071749,33.0104363 48.6995516,32.2629817 C48.4843049,29.8070594 47.3004484,27.4579163 45.470852,26.0697864 Z M80.9865471,45.0764892 C83.8923767,49.4544376 85.7219731,50.2018922 90.8878924,50.8425676 C90.4573991,50.3086714 90.1345291,49.7747753 89.7040359,49.3476584 C87.7668161,47.2120738 85.2914798,45.8239438 82.1704036,45.2900476 C81.7399103,45.1832684 81.4170404,45.0764892 80.9865471,45.0764892 Z M43.2107623,25.2155525 L38.2600897,28.2053709 L37.9372197,28.2053709 C37.3991031,28.0985917 36.9686099,28.0985917 36.5381166,28.0985917 C34.2780269,28.0985917 33.0941704,28.9528255 32.8789238,29.2731632 L32.8789238,29.2731632 L32.6636771,29.5935009 C32.2393338,30.9968851 33.1163101,31.0630446 33.9202531,31.0646485 L34.2280621,31.0648054 C34.5260437,31.0673158 34.785394,31.0853593 34.9237668,31.1951894 C35.4618834,31.6223063 34.4932735,32.4765401 34.4932735,32.4765401 C34.2780269,32.6900986 34.0627803,33.0104363 33.632287,33.0104363 C33.2017937,33.0104363 32.8789238,32.7968778 32.8789238,32.4765401 C32.8789238,31.942644 32.4484305,31.6223063 32.0179372,31.6223063 C31.5874439,31.6223063 31.4798206,31.8358647 31.1569507,32.2629817 C30.7264574,33.0104363 30.2959641,33.5443324 29.8654709,33.9714493 C29.8654709,33.9981441 29.8587444,34.0248389 29.8486547,34.0515338 L29.7746637,34.2117026 L29.7746637,34.2117026 L29.7578475,34.291787 C29.7578475,34.3985662 30.0807175,34.7189039 30.2959641,34.8256832 L30.2959641,34.8256832 L31.264574,35.4663585 L30.1883408,36.9612678 L30.1883408,36.9612678 L30.1883408,37.068047 C30.1883408,37.1748262 30.4035874,37.3883847 30.6188341,37.3883847 C30.941704,37.3883847 31.4798206,37.068047 32.1255605,36.6409301 C33.0941704,36.0002547 34.0627803,35.4663585 34.8161435,35.4663585 C36.2152466,35.4663585 37.2914798,36.8544885 37.2914798,38.3493977 C37.0762332,40.4849823 34.9237668,41.3392162 32.8789238,41.4459954 L32.8789238,41.4459954 L31.1569507,41.3392162 C31.0493274,41.3392162 30.941704,41.4459954 30.941704,41.5527746 C30.941704,41.6595538 30.941704,41.7663331 31.0493274,41.6595538 C31.4798206,41.9798915 33.2017937,42.0866708 33.309417,42.0866708 L33.309417,42.0866708 L33.4170404,42.0866708 C36.1076233,42.19345 39.3363229,40.6985408 39.3363229,38.3493977 C39.3363229,37.6019431 39.1210762,36.8544885 39.0134529,36.1070339 C38.9058296,35.5731378 38.7982063,35.0392416 38.7982063,34.6121247 C38.7982063,33.4375532 39.6591928,32.4765401 40.9506726,32.0494232 L40.9506726,32.0494232 L40.5201794,29.8070594 L41.1659193,29.4867217 C42.6726457,28.6324879 43.5336323,26.9240202 43.3183857,25.429111 L43.3183857,25.429111 L43.3071928,25.4171517 C43.2796413,25.3863993 43.2107623,25.3009759 43.2107623,25.2155525 L43.2107623,25.2155525 Z M85.3991031,35.0392416 L72.161435,35.0392416 C71.6233184,36.1070339 70.9775785,37.068047 70.1165919,37.8155016 L70.1165919,37.8155016 L79.9103139,37.8155016 C82.4932735,37.8155016 84.32287,36.9612678 85.3991031,35.0392416 L85.3991031,35.0392416 Z M93.2556054,30.2341763 L80.0179372,30.2341763 C79.4798206,31.4087478 78.7264574,32.3697609 77.8654709,33.1172155 L77.8654709,33.1172155 L87.6591928,33.1172155 C90.3497758,33.1172155 92.1793722,32.1562024 93.2556054,30.2341763 L93.2556054,30.2341763 Z M101.542601,25.7494487 L88.4125561,25.7494487 C87.8744395,26.7104617 87.1210762,27.5646956 86.2600897,28.3121502 L86.2600897,28.3121502 L96.0538117,28.3121502 C98.529148,28.3121502 100.251121,27.4579163 101.542601,25.7494487 L101.542601,25.7494487 Z M41.2735426,24.1477602 C40.1973094,23.9342018 39.1210762,23.9342018 38.1524664,24.1477602 C37.5067265,24.2545395 36.8609865,24.5748771 36.4304933,24.8952148 C35.8923767,25.3223318 35.3542601,25.7494487 35.0313901,26.1765656 C35.0098655,26.1979214 34.9926457,26.2150061 34.978009,26.2286739 L34.945,26.256 L35.0072298,26.2438085 C35.3366889,26.1877727 35.7210579,26.1784334 36.1603368,26.1768769 L36.4304933,26.1765656 C36.8609865,26.1765656 37.2914798,26.2833448 37.7219731,26.2833448 L37.7219731,26.2833448 Z" id="Combined-Shape" fill="#FFFFFF"/>
    </g>
</g>
  </g>
</g>
  </g>
</svg>