<?xml version="1.0" standalone="no"?>
<!DOCTYPE svg PUBLIC "-//W3C//DTD SVG 20010904//EN"
 "http://www.w3.org/TR/2001/REC-SVG-20010904/DTD/svg10.dtd">
<svg version="1.0" xmlns="http://www.w3.org/2000/svg"
 width="1080.000000pt" height="1080.000000pt" viewBox="0 0 1080.000000 1080.000000"
 preserveAspectRatio="xMidYMid meet">

<g transform="translate(0.000000,1080.000000) scale(0.100000,-0.100000)"
fill="#000000" stroke="none">
<path d="M0 5400 l0 -5400 5400 0 5400 0 0 5400 0 5400 -5400 0 -5400 0 0
-5400z m3539 4000 c46 -6 127 -26 181 -44 240 -80 404 -224 520 -455 l42 -85
21 50 c58 138 176 268 299 329 141 69 -5 65 2266 65 1128 0 2052 -3 2052 -6 0
-14 -95 -181 -130 -229 -91 -124 -237 -223 -381 -259 -37 -9 -110 -19 -164
-23 l-96 -6 -19 -36 c-34 -67 -129 -178 -192 -226 -114 -86 -225 -127 -376
-140 l-79 -7 -20 -42 c-72 -147 -211 -267 -371 -321 -118 -40 -213 -45 -857
-45 l-610 0 0 -90 c0 -49 2 -90 5 -90 3 0 77 -7 165 -15 279 -26 561 -48 825
-65 524 -34 813 -134 1062 -368 188 -177 354 -449 501 -817 30 -77 90 -228
133 -335 102 -259 133 -323 152 -315 87 33 217 32 297 -4 71 -31 117 -81 177
-189 29 -52 82 -128 118 -169 36 -42 75 -88 87 -103 l22 -27 -117 -21 c-137
-26 -194 -27 -280 -7 -100 24 -170 63 -248 140 -113 111 -199 254 -304 506
-29 68 -54 126 -57 129 -2 2 -3 -169 -2 -381 2 -432 2 -432 -70 -488 -49 -39
-157 -91 -269 -131 -51 -18 -91 -35 -89 -37 2 -2 333 -3 736 -3 l731 0 0 -210
0 -210 -4050 0 -4050 0 0 1055 0 1054 63 19 c34 10 135 38 225 63 90 24 160
48 158 54 -65 143 -78 223 -52 303 33 98 153 188 265 200 37 3 54 12 91 48 25
24 65 51 90 59 124 45 308 -3 462 -121 31 -24 58 -44 61 -44 2 0 46 64 98 141
l93 141 -36 32 c-46 40 -58 64 -58 121 0 36 6 51 25 71 39 38 78 51 225 68
157 20 210 36 245 77 45 54 27 129 -31 129 -30 0 -61 -16 -161 -80 -77 -51
-153 -80 -207 -80 -81 0 -165 51 -192 117 -16 37 -18 116 -5 142 7 13 3 31
-15 66 -26 52 -31 115 -14 160 6 15 44 74 85 130 45 62 99 153 134 228 33 68
70 133 83 143 13 10 39 46 56 79 102 191 241 311 436 375 117 38 190 45 315
30z m-1762 -5186 c28 -8 72 -30 97 -49 26 -19 49 -35 52 -35 4 0 34 19 68 43
33 24 67 47 74 51 9 6 12 -45 12 -239 0 -221 -2 -246 -16 -243 -10 2 -26 33
-43 83 -56 166 -133 270 -240 323 -47 23 -69 27 -136 27 -69 0 -86 -4 -126
-27 -148 -87 -208 -317 -189 -728 11 -245 38 -343 116 -430 49 -54 108 -80
184 -80 84 0 165 32 218 87 l42 43 0 230 0 230 -90 0 -90 0 0 30 0 30 266 0
265 0 -3 -27 c-3 -27 -4 -28 -73 -28 l-70 -1 -3 -322 -2 -323 -73 57 c-39 32
-78 62 -85 67 -9 7 -27 -4 -62 -37 -90 -84 -195 -111 -336 -87 -205 36 -357
199 -426 456 -31 115 -31 347 0 457 44 159 137 303 247 378 115 79 277 104
422 64z m5698 -644 l250 -665 67 0 68 0 0 615 0 615 -85 -1 -85 -2 0 34 0 34
280 0 280 0 0 -35 0 -35 -85 0 -85 0 0 -604 c0 -474 3 -605 13 -609 24 -9 151
2 203 19 72 22 118 63 153 137 26 53 37 94 67 255 3 17 11 22 34 22 l30 0 0
-250 0 -250 -581 0 -580 0 25 -24 c26 -23 56 -92 56 -128 0 -30 -28 -77 -78
-130 -46 -50 -94 -82 -105 -71 -3 3 10 36 29 72 44 84 64 211 33 211 -20 0
-91 -76 -137 -148 -75 -117 -137 -248 -182 -382 -51 -154 -52 -200 -6 -200 35
0 73 32 138 116 68 88 217 314 236 357 14 32 40 35 83 10 41 -25 46 -56 21
-128 -12 -33 -31 -96 -42 -139 -11 -44 -44 -158 -74 -255 -30 -97 -57 -191
-61 -210 -12 -55 -109 -285 -144 -340 -45 -69 -75 -91 -124 -91 -50 0 -115 31
-141 67 -11 15 -22 49 -24 79 -4 44 1 64 25 116 44 92 213 276 213 232 0 -4
-18 -35 -39 -69 -105 -166 -145 -345 -77 -345 52 0 116 116 185 335 36 116
121 441 121 462 0 4 -16 -21 -36 -57 -57 -101 -110 -175 -151 -209 -53 -44
-113 -44 -166 0 -87 72 -103 179 -53 349 28 94 90 236 120 275 9 11 35 49 58
85 63 96 128 157 182 172 33 9 46 17 46 30 0 16 10 18 75 18 41 0 75 2 75 4 0
2 -31 84 -69 182 l-70 179 -225 3 -225 2 -14 -27 c-17 -33 -63 -174 -72 -219
-12 -63 24 -104 108 -119 33 -6 37 -11 37 -37 l0 -30 -217 4 c-233 4 -266 10
-322 61 -46 43 -55 80 -61 272 -7 193 -16 230 -63 274 -15 13 -48 29 -74 36
-55 14 -185 19 -238 9 l-35 -6 0 -294 0 -294 85 3 85 2 0 -32 0 -33 -275 0
-275 0 0 33 0 32 85 -1 85 -1 0 614 0 613 -85 0 -85 0 0 35 0 35 343 0 c188 0
370 -5 405 -10 204 -33 302 -136 302 -316 0 -146 -93 -273 -243 -329 -54 -20
-52 -26 13 -44 143 -41 179 -126 180 -433 0 -145 2 -158 19 -168 25 -13 58 0
89 33 14 15 47 95 83 198 214 626 374 1076 385 1085 8 6 26 10 41 10 28 -2 32
-12 278 -666z m-3500 165 l320 -475 3 383 c1 210 0 396 -3 414 -9 48 -54 75
-134 82 -65 6 -66 6 -66 36 l0 30 690 0 690 0 0 -235 c0 -207 -2 -235 -16
-238 -13 -2 -20 15 -33 85 -10 48 -27 112 -38 142 -25 67 -99 144 -154 161
-22 7 -103 15 -181 17 l-143 5 0 -281 0 -281 48 0 c78 0 117 16 161 67 40 44
71 120 71 170 0 18 6 23 25 23 l25 0 0 -311 0 -310 -22 3 c-17 2 -24 15 -38
73 -40 170 -117 228 -272 206 -5 -1 -8 -131 -8 -290 l0 -289 28 -5 c50 -11
246 1 300 18 120 37 178 138 217 378 5 30 10 37 28 37 l22 0 0 -250 0 -250
-492 0 -493 0 0 30 c0 32 3 34 69 31 25 -2 60 0 78 4 l33 6 0 609 0 610 -109
0 c-73 0 -120 -5 -144 -15 -71 -29 -67 7 -67 -667 0 -578 -1 -608 -18 -608
-20 0 -53 45 -467 643 l-290 418 -3 -447 c-2 -413 -1 -449 16 -478 21 -37 111
-86 159 -86 29 0 33 -3 33 -25 l0 -25 -240 0 -240 0 0 25 c0 22 5 25 33 25 39
0 125 39 152 70 19 21 20 38 23 541 1 286 -1 534 -6 552 -14 52 -61 77 -148
77 l-74 0 0 35 0 35 178 0 177 0 320 -475z m5215 436 l0 -38 -82 -1 c-46 -1
-86 -1 -91 -1 -4 -1 -6 -274 -5 -608 l3 -608 70 -2 c39 -1 78 -2 88 -2 12 -1
17 -9 17 -31 l0 -30 -275 0 -275 0 0 29 0 29 85 7 85 7 0 604 0 604 -85 0 -85
0 0 40 0 40 275 0 275 0 0 -39z m-5980 -210 c0 -218 -1 -239 -17 -237 -12 2
-23 31 -43 112 -15 60 -36 127 -48 149 -24 47 -73 96 -121 120 -36 18 -208 34
-293 27 l-48 -4 0 -279 0 -279 52 0 c108 0 183 67 215 191 13 53 22 69 35 69
17 0 18 -20 18 -310 0 -263 -2 -310 -14 -310 -20 0 -26 11 -42 81 -34 145
-103 209 -225 209 l-49 0 0 -296 0 -296 153 4 c125 4 160 8 197 25 59 26 112
87 138 155 21 57 52 192 52 228 0 15 6 20 25 20 l25 0 0 -250 0 -250 -490 0
-490 0 0 35 0 35 90 0 90 0 0 610 0 609 -82 3 c-71 3 -83 6 -86 21 -9 48 -25
47 483 47 l475 0 0 -239z m3230 -1206 c47 -24 100 -68 100 -83 0 -15 -52 -63
-64 -59 -6 2 -21 24 -34 50 -25 52 -39 57 -87 27 -125 -77 -264 -420 -282
-697 -5 -82 -4 -93 10 -93 40 0 185 230 343 542 59 117 79 136 121 116 41 -20
49 -40 29 -76 -9 -18 -22 -44 -30 -59 -64 -122 -110 -536 -70 -631 l15 -37 32
37 c18 20 41 49 53 64 19 26 21 26 26 8 10 -38 -20 -127 -53 -158 -27 -24 -38
-27 -68 -22 -48 8 -81 34 -109 89 -22 42 -24 58 -25 209 0 89 3 174 7 188 4
14 -32 -49 -81 -140 -124 -231 -151 -262 -207 -240 -39 14 -105 91 -117 135
-24 87 10 318 62 414 11 20 19 40 19 46 0 20 63 161 101 226 51 86 105 148
143 165 40 18 106 9 166 -21z m1544 9 c9 -8 16 -21 16 -28 0 -18 -119 -138
-130 -131 -10 6 1 50 32 122 25 57 51 69 82 37z m1584 -131 c2 -16 -15 -40
-62 -88 -35 -36 -78 -83 -95 -104 l-31 -38 42 -7 c29 -5 51 -17 75 -43 l34
-36 32 29 c18 16 53 48 79 73 42 39 68 47 68 19 0 -6 -36 -47 -79 -92 l-79
-81 -4 -65 c-7 -100 -72 -241 -155 -335 l-35 -40 35 50 c39 56 71 117 81 155
4 14 -8 -3 -26 -37 -18 -34 -49 -83 -68 -109 -19 -26 -40 -56 -46 -67 -7 -10
-18 -24 -25 -30 -9 -9 -9 -6 1 8 9 13 4 11 -15 -7 -50 -44 -111 -70 -180 -76
-85 -6 -152 17 -161 56 -4 15 -11 33 -17 39 -6 9 -1 30 18 68 32 66 67 94 319
259 171 112 178 118 171 144 -18 73 -77 79 -159 15 -53 -41 -78 -38 -84 9 -2
19 5 30 35 50 75 50 246 234 198 213 -11 -4 -49 -18 -84 -31 -56 -19 -69 -21
-95 -10 -38 15 -46 54 -18 79 18 16 48 24 182 47 25 4 68 7 95 6 43 -1 50 -4
53 -23z m-544 -64 c37 -17 52 -61 37 -109 -14 -48 -109 -153 -161 -180 -34
-17 -38 -23 -43 -72 -11 -90 -8 -148 7 -154 43 -17 127 72 236 250 62 100 81
119 95 96 7 -12 -5 -33 -132 -227 -118 -178 -163 -210 -242 -168 -54 27 -81
71 -81 128 l0 52 -45 -70 c-56 -86 -78 -105 -119 -105 -94 0 -132 153 -78 310
11 30 22 69 26 85 l7 30 -22 -35 c-12 -19 -34 -53 -48 -75 -14 -22 -40 -71
-57 -109 -37 -85 -55 -99 -86 -68 -19 19 -22 31 -20 86 2 34 16 103 32 152 15
49 26 93 23 98 -15 24 -102 -159 -175 -368 -21 -62 -25 -66 -48 -61 -14 3 -35
17 -47 31 -19 21 -23 37 -23 90 0 63 -1 65 -22 59 -13 -4 -30 -9 -39 -11 -9
-2 -26 -26 -39 -53 -12 -27 -34 -63 -49 -80 -14 -16 -34 -42 -44 -56 -33 -46
-96 -85 -139 -85 -75 0 -145 62 -155 139 -12 85 67 246 141 287 27 16 43 33
52 59 16 49 64 108 97 119 52 19 141 -45 153 -110 4 -20 2 -66 -4 -102 -6 -36
-9 -68 -7 -70 2 -2 16 0 32 5 23 8 32 21 52 81 27 80 45 91 80 46 25 -31 26
-47 7 -77 -17 -27 -40 -126 -35 -152 2 -11 20 25 42 85 49 130 126 270 160
290 21 12 29 12 51 1 42 -23 50 -57 27 -131 -11 -36 -23 -83 -26 -105 -6 -39
-6 -39 24 20 88 174 183 231 210 127 11 -39 -7 -140 -43 -241 -17 -46 -22
-141 -8 -141 14 0 46 39 116 143 36 54 66 105 66 115 0 21 53 133 81 174 44
61 121 85 183 57z m-2220 -705 c-1 -49 -45 -114 -77 -114 -28 0 -57 28 -57 57
0 51 60 105 110 100 22 -2 25 -6 24 -43z"/>
<path d="M3312 9229 c-76 -13 -148 -50 -219 -115 -35 -30 -63 -59 -63 -62 0
-4 53 -7 118 -7 l117 1 135 83 c74 46 140 86 145 89 30 18 -141 26 -233 11z"/>
<path d="M3640 9084 c-41 -25 -134 -82 -206 -125 l-131 -80 -85 7 c-105 8
-211 -8 -295 -46 -71 -32 -103 -73 -103 -132 0 -50 27 -67 120 -74 41 -3 77
-7 82 -10 17 -11 7 -53 -23 -90 -41 -53 -57 -64 -95 -64 -36 0 -47 10 -63 61
-13 40 -54 66 -89 55 -10 -4 -44 -43 -76 -89 -31 -45 -66 -94 -78 -109 -21
-27 -21 -28 -3 -48 10 -11 40 -34 66 -51 l49 -31 -46 -64 c-78 -109 -32 -127
107 -43 113 69 167 95 212 103 115 21 230 -93 231 -229 1 -172 -172 -282 -428
-273 -104 3 -133 -8 -79 -31 46 -18 221 -31 293 -21 228 32 390 164 390 315 0
28 -9 100 -20 160 -25 137 -25 195 -1 243 25 49 77 97 124 117 28 11 37 20 33
33 -2 9 -10 44 -16 77 -6 33 -14 68 -16 77 -4 12 6 23 33 37 109 55 193 177
201 293 3 33 1 63 -4 68 -5 5 -41 -10 -84 -36z"/>
<path d="M4782 9080 c-29 -4 -77 -20 -106 -34 -68 -33 -163 -125 -198 -192
-16 -30 -67 -195 -122 -400 -52 -192 -109 -392 -125 -444 -17 -52 -31 -100
-31 -106 0 -5 20 -24 44 -42 160 -112 204 -359 100 -553 -36 -67 -134 -166
-196 -199 l-46 -24 18 -36 c10 -20 23 -64 30 -98 21 -120 -19 -232 -114 -320
-49 -44 -141 -92 -177 -92 -5 0 -19 -21 -30 -47 -11 -27 -29 -65 -40 -87 -19
-36 -20 -57 -19 -391 1 -390 -4 -437 -52 -491 -44 -49 -74 -62 -164 -69 -101
-8 -156 -28 -193 -70 -53 -60 -62 -132 -33 -244 15 -58 20 -66 47 -73 84 -23
237 29 294 100 l32 39 132 5 c105 4 141 9 179 26 51 22 53 27 62 123 5 63 21
100 61 143 l27 29 -18 76 c-35 143 -16 436 43 644 l16 57 146 0 c264 0 375 21
751 140 504 159 704 187 923 131 93 -24 177 -63 272 -126 248 -165 503 -235
1059 -290 174 -17 215 -28 269 -69 69 -53 86 -108 109 -352 11 -119 16 -220
11 -224 -4 -4 -111 -30 -238 -58 -209 -47 -232 -54 -260 -82 -29 -29 -30 -34
-30 -113 0 -70 4 -90 29 -140 15 -32 35 -61 42 -64 17 -6 586 224 663 268 l51
29 0 578 0 577 -64 130 -63 131 -109 13 c-286 34 -522 104 -647 193 -111 79
-229 212 -348 394 l-67 101 -133 7 c-74 3 -163 8 -199 11 -36 3 -218 16 -405
30 -187 14 -360 27 -385 29 -36 3 -51 0 -78 -20 -18 -14 -58 -37 -90 -52 -49
-23 -70 -27 -147 -27 -83 0 -98 3 -202 45 -62 25 -113 47 -113 51 0 3 27 31
59 62 l59 57 74 -32 c148 -64 266 -27 314 99 12 31 15 57 9 98 l-6 55 -252 1
c-139 1 -264 1 -279 0 -37 -2 -35 10 10 94 l38 70 335 5 c305 5 339 7 396 27
34 11 82 32 105 46 42 24 158 137 158 154 0 4 -191 7 -425 6 -259 -1 -425 2
-425 7 0 5 17 43 37 85 l37 75 524 0 c580 0 624 4 736 63 65 34 190 150 183
170 -3 9 -156 12 -665 12 -364 0 -662 3 -662 7 0 4 17 41 37 83 l37 75 781 0
c840 0 856 1 968 53 62 29 146 94 177 136 l21 31 -1248 -1 c-686 -1 -1272 -5
-1301 -9z"/>
<path d="M7517 9046 c-15 -24 -54 -73 -88 -110 l-61 -66 449 0 c482 0 531 4
636 53 62 29 146 94 177 136 l21 31 -553 0 -553 0 -28 -44z"/>
<path d="M3910 9018 c0 -98 -59 -223 -151 -322 l-65 -71 18 -100 c9 -55 20
-109 23 -121 4 -20 0 -22 -76 -27 -66 -4 -85 -9 -106 -29 -28 -26 -28 -30 2
-198 11 -61 16 -128 13 -186 -3 -78 -9 -101 -36 -156 -93 -190 -384 -325 -652
-304 l-75 6 -106 -171 -106 -172 44 -71 c23 -38 43 -75 43 -81 0 -18 -93 -146
-100 -138 -4 4 -42 60 -83 124 -154 235 -353 365 -491 319 -30 -9 -40 -21 -62
-68 l-26 -57 -84 4 c-76 3 -88 1 -129 -23 -52 -31 -65 -51 -65 -100 0 -46 35
-138 61 -162 20 -18 23 -18 127 10 59 16 135 36 169 44 l62 16 438 -117 c241
-64 455 -122 476 -127 l37 -11 0 -81 0 -80 28 5 c92 18 147 51 239 140 l93 90
0 -247 0 -248 43 7 c67 11 154 55 192 96 41 45 68 98 105 199 l28 75 66 7 c77
7 117 28 160 81 28 35 31 46 31 106 0 92 -25 129 -146 211 -111 75 -103 69
-98 74 2 2 58 14 123 26 139 25 197 51 272 121 70 67 99 132 98 224 -1 115
-44 175 -178 250 l-65 36 30 71 c79 192 152 481 151 603 0 134 -60 317 -139
425 -34 45 -115 130 -125 130 -4 0 -8 -15 -8 -32z"/>
<path d="M6833 8697 c-5 -6 -22 -34 -37 -61 -16 -26 -53 -77 -82 -112 l-55
-64 453 0 c490 0 541 5 643 55 64 31 127 84 165 140 17 24 30 46 30 49 0 2
-249 5 -554 5 -429 1 -556 -2 -563 -12z"/>
<path d="M6185 8292 c-12 -2 -33 -26 -54 -62 -19 -33 -56 -84 -83 -115 l-50
-55 461 0 c295 0 479 4 513 11 94 20 190 72 252 139 31 34 56 67 56 73 0 9
-128 12 -537 12 -296 0 -547 -1 -558 -3z"/>
<path d="M6920 7435 c0 -18 141 -193 204 -253 90 -85 152 -122 271 -162 81
-26 290 -70 337 -70 41 0 -128 186 -252 277 -119 87 -251 144 -437 188 -110
26 -123 28 -123 20z"/>
<path d="M1650 6705 l-385 -102 -3 -707 c-2 -671 -1 -707 15 -702 10 3 189 50
398 106 l380 100 380 -101 c209 -55 388 -102 398 -105 16 -5 17 33 17 700 l0
704 -32 11 c-65 20 -764 201 -773 200 -6 -1 -183 -47 -395 -104z m318 -272
l-3 -87 -235 -62 c-129 -33 -248 -64 -263 -68 l-28 -7 3 87 3 87 255 67 c140
37 259 68 263 69 4 1 6 -38 5 -86z m662 -40 l35 -9 3 -88 c2 -73 0 -88 -11
-83 -8 3 -122 33 -253 67 -132 34 -244 65 -249 70 -8 6 -11 110 -6 162 1 5
213 -47 481 -119z m-660 -308 l0 -84 -37 -11 c-87 -24 -472 -120 -482 -120 -7
0 -11 29 -11 83 l0 84 253 65 c138 36 258 66 265 67 9 1 12 -22 12 -84z m439
20 c140 -36 255 -65 257 -65 2 0 4 -38 4 -85 0 -47 -3 -85 -7 -85 -5 0 -120
29 -258 63 l-250 64 -3 86 c-1 48 -1 87 1 87 1 0 117 -29 256 -65z m-439 -363
l0 -88 -247 -64 c-137 -35 -256 -66 -265 -68 -16 -4 -18 5 -18 82 0 85 0 86
28 92 31 8 496 131 500 133 1 1 2 -39 2 -87z m663 -42 l37 -11 0 -86 c0 -84 0
-85 -22 -79 -13 3 -130 34 -260 67 l-237 62 -3 84 c-2 47 -2 86 -1 87 3 2 403
-100 486 -124z"/>
<path d="M3188 6439 c-10 -5 -50 -18 -90 -28 l-73 -19 -3 -673 -2 -674 86 0
c81 -1 85 0 79 20 -20 72 -27 127 -23 203 2 75 8 97 36 155 59 119 155 175
322 186 l85 6 3 291 2 291 -82 -25 c-97 -29 -358 -45 -358 -22 0 6 9 66 21
131 23 139 23 173 -3 158z"/>
<path d="M5728 6433 c-16 -2 -28 -6 -28 -9 0 -2 62 -104 137 -227 198 -321
207 -339 207 -412 0 -88 -39 -153 -189 -316 l-125 -136 -42 4 c-24 2 -107 15
-186 28 -79 14 -160 25 -180 25 -72 -1 -166 -66 -191 -133 -12 -32 -14 -172
-2 -201 7 -17 24 -18 334 -17 l327 1 73 78 c333 349 494 524 519 562 42 65 36
113 -35 265 -197 426 -181 397 -240 427 -29 15 -80 34 -112 43 -61 16 -218 27
-267 18z"/>
<path d="M5440 6378 c-19 -6 -107 -35 -195 -64 -199 -66 -432 -129 -550 -149
-49 -9 -152 -18 -227 -22 l-137 -6 -5 -26 c-34 -174 -40 -393 -13 -481 9 -30
32 -80 51 -110 l35 -55 -72 -35 -72 -35 -12 -83 c-20 -133 -69 -201 -169 -237
-27 -9 -57 -20 -67 -23 -12 -5 862 -7 943 -2 3 0 5 51 5 113 0 102 3 117 29
174 51 112 161 192 293 214 69 11 95 8 350 -46 17 -4 41 16 121 104 55 61 104
123 110 139 13 38 9 46 -193 380 -102 168 -165 262 -175 261 -8 -1 -31 -6 -50
-11z"/>
<path d="M6410 6185 c0 -2 24 -54 54 -118 105 -224 120 -286 91 -383 -22 -74
-59 -120 -306 -381 -124 -131 -226 -242 -227 -246 -1 -4 239 -9 534 -10 472
-2 534 0 530 13 -2 8 -14 42 -26 75 -26 69 -31 185 -12 252 7 23 27 61 45 85
56 73 103 94 298 135 96 20 175 38 177 39 8 5 -31 282 -43 301 -18 27 -21 27
-299 58 -287 32 -491 73 -673 134 -79 26 -143 47 -143 46z"/>
<path d="M8588 5673 c-31 -8 -20 -31 50 -102 68 -69 146 -111 207 -111 24 0
23 3 -29 88 -43 67 -64 92 -97 110 -39 20 -89 26 -131 15z"/>
<path d="M1733 5141 c-177 -47 -324 -88 -326 -91 -3 -3 293 -5 658 -5 365 0
661 3 657 6 -5 4 -574 156 -652 173 -8 2 -160 -35 -337 -83z"/>
<path d="M5960 3853 l0 -283 138 0 c112 0 145 4 178 19 86 39 134 136 134 271
0 90 -18 157 -55 205 -43 57 -63 62 -237 66 l-158 4 0 -282z"/>
<path d="M7127 3869 c-44 -120 -177 -513 -177 -525 0 -11 38 -14 200 -14 110
0 200 2 200 4 0 3 -41 118 -91 258 -50 139 -97 268 -103 287 l-12 34 -17 -44z"/>
<path d="M6107 2308 c-23 -77 -40 -174 -35 -190 3 -7 8 10 12 39 4 29 16 85
26 125 22 84 19 105 -3 26z"/>
<path d="M6363 1930 c0 -30 2 -43 4 -27 2 15 2 39 0 55 -2 15 -4 2 -4 -28z"/>
<path d="M9364 2112 c-28 -20 -66 -49 -85 -64 -19 -15 -72 -55 -119 -90 -54
-41 -95 -81 -114 -111 -27 -45 -28 -48 -12 -72 18 -28 25 -29 78 -14 44 12
139 96 204 181 46 59 108 180 102 197 -1 5 -26 -7 -54 -27z"/>
<path d="M8958 2523 c-8 -10 -20 -27 -26 -38 -17 -34 -52 -148 -47 -153 7 -8
73 57 96 95 13 21 19 45 17 69 -3 43 -18 52 -40 27z"/>
<path d="M7872 2487 c-27 -29 -62 -128 -62 -177 0 -46 14 -60 62 -60 34 0 38
3 48 38 18 64 25 189 10 207 -17 21 -33 19 -58 -8z"/>
<path d="M8321 2304 c0 -11 3 -14 6 -6 3 7 2 16 -1 19 -3 4 -6 -2 -5 -13z"/>
<path d="M7711 2196 c-35 -108 -40 -180 -15 -190 23 -9 79 21 114 60 35 40 83
131 76 143 -3 5 -23 11 -45 15 -24 4 -49 17 -69 37 l-30 31 -31 -96z"/>
<path d="M8311 2264 c0 -11 3 -14 6 -6 3 7 2 16 -1 19 -3 4 -6 -2 -5 -13z"/>
<path d="M8757 2217 c-4 -10 -7 -37 -6 -60 l1 -42 9 45 c10 52 8 87 -4 57z"/>
</g>
</svg>
