<?xml version="1.0" standalone="no"?>
<!DOCTYPE svg PUBLIC "-//W3C//DTD SVG 20010904//EN"
 "http://www.w3.org/TR/2001/REC-SVG-20010904/DTD/svg10.dtd">
<svg version="1.0" xmlns="http://www.w3.org/2000/svg"
 width="1080.000000pt" height="1080.000000pt" viewBox="0 0 1080.000000 1080.000000"
 preserveAspectRatio="xMidYMid meet">

<g transform="translate(0.000000,1080.000000) scale(0.100000,-0.100000)"
fill="#000000" stroke="none">
<path d="M0 5400 l0 -5400 5400 0 5400 0 0 5400 0 5400 -5400 0 -5400 0 0
-5400z m7628 738 c9 -11 142 -359 222 -578 15 -41 32 -88 39 -105 6 -16 19
-50 28 -75 8 -25 21 -58 28 -75 7 -16 20 -52 30 -80 10 -27 23 -63 30 -80 7
-16 37 -93 65 -170 78 -207 92 -233 136 -241 21 -4 53 -3 73 2 l36 9 3 649 c1
358 -1 653 -5 657 -5 4 -41 10 -82 14 -81 7 -91 10 -91 29 0 20 375 35 519 20
50 -6 61 -10 61 -25 0 -13 -7 -19 -22 -20 -65 -2 -134 -11 -143 -20 -16 -16
-19 -1226 -2 -1275 l13 -39 69 3 c222 8 311 93 361 344 9 46 21 92 27 103 10
19 11 19 18 -5 9 -32 11 -301 2 -407 l-6 -83 -352 0 -352 0 19 -40 c14 -27 18
-49 13 -67 -7 -29 -101 -130 -111 -120 -4 3 5 30 20 58 26 52 34 113 18 123
-21 13 -88 -75 -144 -189 -45 -88 -93 -237 -85 -259 18 -47 79 8 184 167 37
57 73 112 79 123 9 16 16 17 40 9 36 -13 40 -35 20 -99 -9 -28 -39 -130 -67
-226 -107 -369 -160 -455 -254 -416 -21 9 -44 24 -51 34 -17 22 -18 84 0 125
13 32 125 161 133 154 2 -3 -14 -38 -36 -78 -49 -91 -69 -163 -51 -184 41 -49
112 96 180 366 17 65 30 121 30 125 0 4 -16 -19 -36 -52 -50 -84 -95 -127
-134 -127 -63 0 -120 92 -105 170 22 119 89 260 166 347 21 24 39 47 39 50 0
3 -99 6 -220 6 -209 0 -220 1 -220 19 0 16 9 19 70 23 38 2 75 9 80 14 14 14
-124 370 -146 378 -9 3 -118 6 -243 6 -204 0 -229 -2 -243 -17 -26 -30 -78
-208 -78 -267 0 -47 4 -57 26 -75 26 -20 34 -24 87 -35 18 -4 27 -13 27 -26 0
-19 -7 -20 -225 -20 -241 0 -272 5 -323 53 -52 49 -62 85 -72 279 -5 101 -14
201 -21 223 -15 53 -74 110 -129 126 -66 19 -288 18 -300 -1 -6 -9 -10 -147
-10 -322 l0 -307 53 -5 c28 -3 70 -7 92 -9 28 -1 40 -7 40 -17 0 -23 -155 -33
-373 -23 -166 7 -187 10 -190 26 -3 15 5 17 60 17 35 0 73 3 86 6 l22 6 0 658
0 657 -77 7 c-82 7 -99 15 -89 42 6 15 37 16 399 11 422 -5 463 -10 554 -63
138 -80 184 -266 104 -428 -36 -74 -80 -117 -180 -175 -39 -23 -71 -46 -71
-51 0 -4 24 -16 53 -25 104 -34 146 -76 166 -166 6 -26 15 -138 21 -250 7
-139 14 -206 23 -211 21 -14 64 -8 89 11 37 30 75 109 133 279 30 86 79 229
110 317 31 88 60 174 64 190 5 17 23 68 41 115 17 47 35 99 39 115 13 47 107
317 121 348 10 20 20 27 40 27 15 0 32 -6 38 -12z m-5795 -39 c32 -11 76 -33
99 -49 46 -33 43 -34 141 32 l57 39 -2 -243 c-2 -150 -7 -243 -13 -243 -5 0
-23 38 -40 85 -57 160 -151 284 -252 335 -52 27 -68 30 -148 30 -103 0 -148
-18 -214 -84 -45 -45 -96 -161 -117 -264 -21 -107 -30 -470 -15 -592 29 -225
97 -347 227 -405 75 -32 111 -34 184 -10 67 23 110 50 168 103 l32 31 0 248 0
248 -26 10 c-14 6 -56 10 -94 10 -63 0 -92 11 -75 28 8 8 545 5 553 -3 13 -13
-20 -27 -65 -27 -27 1 -55 -3 -62 -8 -23 -14 -30 -95 -30 -382 -1 -227 -3
-278 -15 -278 -7 0 -33 17 -57 38 -46 40 -80 62 -98 62 -6 0 -26 -16 -46 -36
-42 -42 -140 -90 -210 -103 -30 -6 -74 -5 -114 0 -74 11 -191 48 -191 61 0 4
-7 8 -15 8 -9 0 -48 33 -88 73 -297 295 -285 941 21 1190 37 30 87 65 112 77
96 49 275 57 393 19z m1487 -5 c12 -30 12 -407 0 -444 -9 -32 -15 -20 -35 85
-20 100 -52 170 -101 224 -49 55 -97 79 -181 91 -87 12 -253 13 -273 0 -13 -8
-15 -52 -15 -295 0 -327 -2 -318 82 -309 118 12 209 101 229 222 7 46 20 70
31 58 4 -4 9 -147 11 -317 3 -301 3 -309 -17 -309 -16 0 -20 9 -26 51 -11 81
-61 168 -116 202 -57 35 -143 47 -174 24 -19 -15 -20 -27 -20 -316 0 -202 4
-303 11 -311 17 -17 83 -21 210 -11 90 6 130 14 162 30 103 53 149 129 186
310 16 77 25 106 36 106 13 0 15 -37 18 -247 l2 -246 -62 -5 c-35 -3 -262 -4
-506 -3 -379 1 -444 3 -452 16 -14 23 -1 28 82 32 43 2 82 8 88 14 15 15 23
711 13 1049 l-8 260 -50 3 c-89 4 -115 11 -115 32 0 13 9 20 28 23 15 2 235 5
490 5 l463 1 9 -25z m488 9 c11 -10 94 -126 183 -258 299 -442 477 -701 493
-714 13 -11 17 -11 21 2 4 8 5 201 3 428 -3 452 -2 442 -63 474 -16 9 -57 22
-90 28 -49 10 -60 16 -60 32 0 20 7 20 728 20 l727 0 0 -237 c0 -131 -4 -238
-8 -238 -5 0 -19 42 -32 93 -45 181 -97 259 -200 299 -46 18 -81 22 -212 26
l-158 4 0 -253 c0 -140 3 -278 6 -306 l7 -53 56 0 c69 0 150 36 185 84 20 25
56 118 73 184 1 7 7 10 13 7 13 -8 14 -621 1 -629 -10 -7 -21 19 -50 120 -34
118 -113 174 -243 174 l-48 0 0 -324 0 -324 23 -6 c68 -18 301 5 365 37 86 42
136 120 174 272 28 114 38 145 49 145 5 0 9 -103 9 -248 l0 -249 -182 -6
c-226 -9 -726 -7 -793 1 -35 5 -50 12 -50 22 0 12 19 16 92 20 50 3 94 7 96
10 9 9 9 41 8 684 l-1 638 -137 -4 c-157 -4 -190 -16 -220 -78 -16 -32 -18
-94 -21 -657 -2 -343 -7 -623 -11 -623 -9 0 -67 79 -188 255 -124 180 -236
341 -372 535 -64 91 -133 191 -154 222 -21 32 -48 64 -60 73 -21 14 -22 14
-29 -7 -10 -36 -9 -878 2 -923 12 -55 66 -100 152 -126 67 -21 81 -32 55 -42
-21 -8 -318 -9 -402 -1 -85 8 -93 22 -24 39 54 14 121 48 140 71 22 26 26
1147 5 1199 -19 44 -64 65 -140 65 -30 0 -61 3 -70 6 -19 7 -21 40 -3 47 6 3
85 6 173 6 140 1 164 -1 182 -16z m5865 11 c26 -5 37 -12 37 -24 0 -14 -14
-18 -82 -23 -45 -4 -86 -11 -92 -17 -12 -12 -16 -1293 -5 -1305 4 -3 45 -9 93
-12 75 -5 86 -8 86 -24 0 -18 -14 -19 -285 -19 -278 0 -285 0 -285 20 0 18 7
20 68 20 118 0 107 -71 107 677 l0 648 -55 2 c-93 5 -120 12 -120 33 0 10 6
21 13 23 18 8 475 8 520 1z m-1973 -1488 c50 -27 63 -58 32 -75 -21 -11 -33
-3 -45 32 -7 19 -29 22 -56 7 -34 -18 -93 -118 -126 -215 -21 -61 -35 -90 -39
-78 -3 10 -3 -2 0 -27 3 -25 2 -40 -3 -33 -4 6 -9 -27 -10 -73 -2 -49 1 -84 7
-84 19 0 89 107 175 268 89 165 101 178 138 150 15 -12 14 -17 -7 -63 -62
-135 -88 -435 -36 -435 4 0 18 16 30 36 13 19 26 32 31 27 11 -11 -7 -78 -27
-98 -23 -23 -71 -19 -99 9 -31 31 -38 72 -33 194 l3 99 -57 -106 c-59 -112
-89 -151 -114 -151 -8 0 -31 15 -52 34 l-37 35 1 93 c1 106 18 166 89 315 58
119 99 163 151 163 22 0 59 -10 84 -24z m980 9 c11 -14 7 -22 -25 -55 -59 -60
-69 -54 -35 24 22 48 39 57 60 31z m1015 -74 c3 -5 -24 -43 -60 -83 l-65 -73
29 -3 c16 -2 37 -12 47 -23 24 -27 35 -24 79 21 21 22 43 40 47 40 20 0 4 -30
-41 -74 -44 -43 -49 -53 -53 -101 -4 -53 -48 -154 -76 -177 -8 -7 -5 3 7 22
11 19 21 40 21 45 0 6 -11 -10 -25 -33 -14 -24 -22 -49 -18 -55 3 -7 3 -9 -2
-5 -11 11 -36 -12 -28 -25 3 -6 1 -7 -5 -3 -6 3 -14 0 -19 -8 -13 -23 -75 -55
-118 -61 -57 -8 -97 6 -113 39 -30 61 6 102 191 223 70 45 127 86 127 91 0 15
-31 52 -44 52 -7 0 -30 -11 -50 -25 -76 -51 -94 -10 -21 48 44 34 109 106 102
114 -2 2 -20 -4 -40 -12 -46 -19 -71 -19 -88 1 -21 25 2 47 62 60 68 14 146
17 154 5z m-344 -51 c46 -25 6 -122 -70 -170 -35 -23 -39 -30 -44 -78 -6 -59
-1 -82 17 -82 20 0 91 81 137 158 24 39 49 72 56 72 21 0 16 -12 -55 -121 -67
-103 -110 -149 -139 -149 -44 0 -93 54 -93 102 0 17 -7 11 -29 -24 -40 -63
-66 -76 -99 -51 -46 34 -52 100 -18 206 8 26 14 47 12 47 -6 0 -73 -115 -86
-148 -15 -40 -26 -47 -45 -32 -21 18 -19 86 5 155 23 67 23 68 10 60 -15 -9
-63 -109 -95 -197 -15 -43 -31 -78 -34 -78 -4 0 -17 7 -29 16 -17 12 -22 25
-22 60 0 68 -28 60 -83 -23 -77 -116 -136 -140 -199 -84 -28 25 -33 36 -33 73
1 56 42 137 83 163 17 11 36 33 42 50 15 41 49 75 76 75 12 0 36 -14 54 -30
32 -30 33 -32 27 -94 -6 -61 -5 -64 14 -59 12 3 23 13 26 22 2 9 11 31 19 50
l15 34 20 -20 c20 -19 20 -22 4 -71 -28 -83 -12 -94 18 -12 31 84 80 168 103
177 9 3 25 -3 36 -15 19 -19 20 -24 8 -69 -6 -26 -14 -57 -17 -68 -3 -11 12 8
32 41 39 64 72 91 99 81 28 -11 29 -54 1 -151 -25 -87 -26 -116 -6 -116 14 0
101 137 117 185 32 93 107 145 165 115z m-1423 -440 c4 -24 -36 -80 -57 -80
-30 0 -42 29 -25 61 7 15 19 30 26 32 23 10 53 2 56 -13z"/>
<path d="M6267 6054 c-4 -4 -7 -141 -7 -305 l0 -297 23 -6 c12 -3 80 -6 150
-6 148 0 180 9 244 72 60 59 78 116 77 253 -1 142 -26 213 -92 260 l-44 30
-172 3 c-94 2 -175 0 -179 -4z"/>
<path d="M7513 5788 c-16 -19 -193 -554 -193 -582 l0 -24 189 -2 c105 0 202 2
216 6 34 8 33 17 -29 189 -117 329 -152 419 -162 422 -6 2 -16 -2 -21 -9z"/>
<path d="M7471 4334 c0 -11 3 -14 6 -6 3 7 2 16 -1 19 -3 4 -6 -2 -5 -13z"/>
<path d="M7641 4114 c0 -11 3 -14 6 -6 3 7 2 16 -1 19 -3 4 -6 -2 -5 -13z"/>
<path d="M9500 4174 c-114 -87 -150 -124 -150 -150 0 -85 149 14 219 146 49
91 45 91 -69 4z"/>
<path d="M9290 4463 c-24 -54 -39 -103 -30 -103 18 0 70 75 70 102 0 36 -23
36 -40 1z"/>
<path d="M8601 4454 c-22 -28 -35 -77 -29 -115 2 -18 10 -25 30 -27 32 -4 42
20 43 107 0 63 -13 74 -44 35z"/>
<path d="M8501 4267 c-23 -66 -26 -102 -11 -112 18 -11 71 27 101 73 34 53 35
62 12 62 -10 0 -32 9 -50 19 l-32 20 -20 -62z"/>
<path d="M9172 4255 c0 -16 2 -22 5 -12 2 9 2 23 0 30 -3 6 -5 -1 -5 -18z"/>
</g>
</svg>
